SplineFontDB: 3.0
FontName: FProject-Italic
FullName: FProject
FamilyName: FProject
Weight: Regular
Copyright: Created by Subhraman Sarkar, with FontForge 2.0 (http://fontforge.sf.net). This font is available under the Open Font Licence.
FontLog: "Added characters +ACIA,#,',(,),*,|,$,%,yen+AAoACgAA-Completed Basic Latin Block.+AAoACgAA-Completed Basic Latin Block.+AAoACgAA-Completed Basic Latin Block. Added a few characters to Latin-1 Block.+AAoACgAA-Added Mathematical Operators." 
Version: 001.000
ItalicAngle: 0
UnderlinePosition: -100
UnderlineWidth: 50
Ascent: 800
Descent: 200
sfntRevision: 0x00010000
LayerCount: 2
Layer: 0 0 "Back"  1
Layer: 1 0 "Fore"  0
XUID: [1021 954 812889790 9793859]
FSType: 0
OS2Version: 4
OS2_WeightWidthSlopeOnly: 0
OS2_UseTypoMetrics: 1
CreationTime: 1412866884
ModificationTime: 1435075473
PfmFamily: 17
TTFWeight: 500
TTFWidth: 5
LineGap: 90
VLineGap: 0
Panose: 2 0 6 3 0 0 0 0 0 0
OS2TypoAscent: 0
OS2TypoAOffset: 1
OS2TypoDescent: 0
OS2TypoDOffset: 1
OS2TypoLinegap: 90
OS2WinAscent: 0
OS2WinAOffset: 1
OS2WinDescent: 0
OS2WinDOffset: 1
HheadAscent: 0
HheadAOffset: 1
HheadDescent: 0
HheadDOffset: 1
OS2SubXSize: 650
OS2SubYSize: 700
OS2SubXOff: 0
OS2SubYOff: 140
OS2SupXSize: 650
OS2SupYSize: 700
OS2SupXOff: 0
OS2SupYOff: 480
OS2StrikeYSize: 49
OS2StrikeYPos: 258
OS2Vendor: 'PfEd'
OS2CodePages: 00000001.00000000
OS2UnicodeRanges: 00000001.00000000.00000000.00000000
Lookup: 1 0 0 "'sups' Superscript lookup 0"  {"'sups' Superscript lookup 0 subtable" ("superior" ) } ['sups' ('DFLT' <'dflt' > ) ]
MarkAttachClasses: 1
DEI: 91125
LangName: 1033 
Encoding: UnicodeBmp
UnicodeInterp: none
NameList: Adobe Glyph List
DisplaySize: -48
AntiAlias: 1
FitToEm: 1
WinInfo: 0 27 10
BeginPrivate: 9
BlueValues 27 [-226 -198 403 403 776 783]
OtherBlues 11 [-687 -684]
BlueScale 9 0.0353571
BlueShift 1 2
StdHW 4 [75]
StdVW 4 [86]
StemSnapH 33 [72 75 76 77 78 83 88 97 102 134]
StemSnapV 24 [67 72 76 80 86 129 146]
ExpansionFactor 4 0.06
EndPrivate
Grid

StartChar: .notdef
Encoding: 65536 -1 0
Width: 500
Flags: HMW
LayerCount: 2
Fore
SplineSet
38.835 -8 m 1
 255.651 540 l 1
 671.651 540 l 1
 454.835 -8 l 1
 38.835 -8 l 1
130.947 58 m 1
 414.947 58 l 1
 580.329 476 l 1
 296.329 476 l 1
 130.947 58 l 1
EndSplineSet
EndChar

StartChar: exclam
Encoding: 33 33 2
Width: 280
GlyphClass: 2
Flags: HMW
LayerCount: 2
Fore
SplineSet
158.478 -110 m 0
 144.631 -145 108.366 -176 70.3662 -176 c 0
 34.3662 -176 20.6309 -145 33.6875 -112 c 0
 47.5342 -77 86.4053 -47 124.405 -47 c 0
 160.405 -47 171.534 -77 158.478 -110 c 0
433.198 736 m 0
 450.198 736 460.264 721 470.351 701 c 1
 457.294 668 l 2
 370.646 449 292.595 277 212.422 87 c 1
 186.365 54 168.661 32 154.265 31 c 1
 144.056 33 140.178 51 140.213 89 c 1
 218.882 303 231.808 366 363.746 702 c 1
 364.933 705 l 1
 395.846 725 418.198 736 433.198 736 c 0
EndSplineSet
EndChar

StartChar: plus
Encoding: 43 43 3
Width: 565
GlyphClass: 2
Flags: HMW
LayerCount: 2
Fore
SplineSet
335.539 244 m 1
 403.756 424 l 1
 479.756 424 l 1
 410.539 244 l 1
 580.539 244 l 1
 551.261 170 l 1
 382.261 170 l 1
 307.504 -24 l 1
 231.504 -24 l 1
 307.261 170 l 1
 149.261 170 l 1
 178.539 244 l 1
 335.539 244 l 1
EndSplineSet
EndChar

StartChar: comma
Encoding: 44 44 4
Width: 257
GlyphClass: 2
Flags: HMW
LayerCount: 2
Fore
SplineSet
8.30078 -161 m 0
 22.5439 -125 53.0605 -106 81.0605 -106 c 2
 83.0605 -106 l 2
 85.0605 -106 86.457 -105 87.457 -105 c 0
 90.457 -105 90.665 -107 92.2705 -108 c 0
 116.483 -110.437 116.537 -139.26 115.652 -150 c 1
 111.695 -160 l 2
 107.739 -170 100.805 -185 93.2432 -194 c 1
 57.4268 -282 -11.6416 -358 -97.9424 -427 c 1
 -107.886 -394 l 1
 -63.873 -351 -28.6523 -310 -10.4521 -264 c 0
 -1.35156 -241 3.74805 -218 6.03516 -192 c 1
 0.991211 -182 3.94727 -172 8.30078 -161 c 0
EndSplineSet
EndChar

StartChar: hyphen
Encoding: 45 45 5
Width: 566
GlyphClass: 2
Flags: HMW
LayerCount: 2
Fore
SplineSet
178.539 244 m 5
 580.539 244 l 5
 551.261 170 l 5
 149.261 170 l 5
 178.539 244 l 5
EndSplineSet
EndChar

StartChar: period
Encoding: 46 46 6
Width: 257
GlyphClass: 2
Flags: HMW
LayerCount: 2
Fore
SplineSet
-27.3691 -145 m 0
 -12.7295 -108 25.7217 -74 67.7217 -74 c 0
 107.722 -74 121.27 -108 107.422 -143 c 0
 92.7832 -180 50.123 -212 10.123 -212 c 0
 -29.877 -212 -41.2168 -180 -27.3691 -145 c 0
EndSplineSet
EndChar

StartChar: slash
Encoding: 47 47 7
Width: 435
GlyphClass: 2
Flags: HMW
LayerCount: 2
Fore
SplineSet
2.0791 -202 m 1
 574.484 762 l 1
 654.693 760 l 1
 86.0791 -202 l 1
 2.0791 -202 l 1
EndSplineSet
EndChar

StartChar: zero
Encoding: 48 48 8
Width: 819
GlyphClass: 2
Flags: W
HStem: -218 96<276.307 409.868> 631 91<579.254 717.958>
LayerCount: 2
Fore
SplineSet
648.654 631 m 0
 604.654 631 553.741 611 496.499 575 c 0
 377.033 498 293.117 387 232.582 234 c 0
 176.796 93 181.978 5 236.492 -67 c 0
 264.247 -103 314.731 -122 357.731 -122 c 0
 403.731 -122 459.226 -98 522.053 -58 c 0
 636.33 16 694.774 98 752.935 245 c 0
 810.698 391 811.429 499 755.104 574 c 1
 726.346 610 692.654 631 648.654 631 c 0
831.539 244 m 0
 757.947 58 678.405 -47 524.005 -139 c 0
 441.223 -189 370.748 -218 310.748 -218 c 0
 258.748 -218 207.893 -205 169.093 -159 c 0
 90.7002 -69 70.7832 50 141.208 228 c 0
 218.756 424 327.773 558 485.36 653 c 0
 561.56 699 625.658 722 679.658 722 c 0
 733.658 722 779.56 699 818.963 652 c 1
 898.959 561 904.734 429 831.539 244 c 0
EndSplineSet
EndChar

StartChar: one
Encoding: 49 49 9
Width: 354
GlyphClass: 2
Flags: W
LayerCount: 2
Fore
SplineSet
445.315 663 m 1
 449.315 663 457.921 662 459.921 662 c 0
 474.921 662 471.712 664 506.712 664 c 2
 517.712 664 l 1
 182.244 -194 l 1
 103.849 -195 l 1
 367.099 483 l 1
 309.568 421 290.052 402 250.038 359 c 1
 235.103 344 l 1
 239.821 409 l 1
 445.315 663 l 1
EndSplineSet
EndChar

StartChar: colon
Encoding: 58 58 10
Width: 273
GlyphClass: 2
Flags: HMW
LayerCount: 2
Fore
SplineSet
142.1 253 m 0
 156.738 290 196.19 324 238.19 324 c 0
 278.19 324 290.738 290 276.892 255 c 0
 262.252 218 220.591 186 180.591 186 c 0
 140.591 186 128.252 218 142.1 253 c 0
11.9746 -86 m 0
 26.6133 -49 66.4609 -14 108.461 -14 c 0
 148.461 -14 160.613 -49 146.766 -84 c 0
 132.126 -121 90.0703 -154 50.0703 -154 c 0
 10.0703 -154 -1.87402 -121 11.9746 -86 c 0
EndSplineSet
EndChar

StartChar: semicolon
Encoding: 59 59 11
Width: 273
GlyphClass: 2
Flags: HMW
LayerCount: 2
Fore
SplineSet
22.3916 -90 m 0
 37.0303 -53 74.5039 -24 109.504 -24 c 0
 152.504 -24 155.822 -51 139.601 -92 c 0
 134.061 -106 120.334 -123 108.774 -132 c 1
 72.957 -220 3.8877 -296 -82.4131 -365 c 1
 -92.3545 -332 l 1
 -48.3428 -289 -14.5176 -249 3.68262 -203 c 0
 12.7832 -180 17.8828 -157 20.1699 -131 c 1
 13.917 -119 16.457 -105 22.3916 -90 c 0
153.243 266 m 0
 167.882 303 207.729 338 249.729 338 c 0
 289.729 338 301.882 303 288.034 268 c 0
 273.396 231 231.338 198 191.338 198 c 0
 151.338 198 139.396 231 153.243 266 c 0
EndSplineSet
EndChar

StartChar: less
Encoding: 60 60 12
Width: 530
GlyphClass: 2
Flags: W
LayerCount: 2
Fore
SplineSet
242.248 127 m 1
 455.627 -6 l 1
 395.116 -73 l 1
 308.087 -20 222.452 34 135.422 87 c 1
 122.982 96 l 1
 120.269 122 l 1
 155.699 161 l 1
 286.459 216 417.825 270 548.586 325 c 1
 556.077 258 l 1
 242.248 127 l 1
EndSplineSet
EndChar

StartChar: equal
Encoding: 61 61 13
Width: 566
GlyphClass: 2
Flags: HMW
LayerCount: 2
Fore
SplineSet
124.73 108 m 1
 526.73 108 l 1
 496.661 32 l 1
 94.6611 32 l 1
 124.73 108 l 1
178.539 244 m 1
 580.539 244 l 1
 551.261 170 l 1
 149.261 170 l 1
 178.539 244 l 1
EndSplineSet
EndChar

StartChar: greater
Encoding: 62 62 14
Width: 530
GlyphClass: 2
Flags: W
LayerCount: 2
Fore
SplineSet
385.874 121 m 1
 175.704 252 l 1
 236.212 319 l 1
 323.452 264 412.086 210 499.325 155 c 1
 503.896 116 l 1
 480.213 89 l 1
 345.805 31.2109 209.48 -23.4082 74.3486 -80 c 1
 66.8574 -13 l 1
 385.874 121 l 1
EndSplineSet
EndChar

StartChar: A
Encoding: 65 65 15
Width: 924
GlyphClass: 2
Flags: W
HStem: -200.526 21G<136.037 256.84>
VStem: 40.2754 44.5059<52.5749 181.097> 706.582 72.1865<508.615 642.88>
LayerCount: 2
Fore
SplineSet
176.972 -107.12 m 0
 366.606 171.373 686.769 745.413 686.769 745.413 c 1
 778.769 745.413 l 1
 789.554 417.163 760.239 243.382 800.59 -198.527 c 1
 776.674 -206.667 756.487 -221.201 714.59 -198.527 c 1
 724.012 -83.8584 700.444 30.8047 708.475 145.473 c 1
 610.649 160.192 514.107 191.409 411.535 144.88 c 1
 360.695 12.5898 291.643 -94.3535 222.037 -200.526 c 1
 222.037 -200.526 149.718 -232.244 136.037 -200.526 c 0
 68.3506 -43.5977 50.2305 61.373 40.2754 220.88 c 1
 44.6689 210.335 83.3564 181.604 84.7812 169.372 c 0
 100.855 31.3721 159.026 -133.477 176.972 -107.12 c 0
706.582 217.373 m 1
 709.355 642.88 l 1
 466.012 227.473 l 1
 544.06 253.596 625.439 226.608 706.582 217.373 c 1
EndSplineSet
EndChar

StartChar: B
Encoding: 66 66 16
Width: 689
GlyphClass: 2
Flags: W
HStem: -191 68<100.334 413.356> 250 90<285.521 550.121 552.912 574.482> 705 80<523.703 723.933> 715 70<437.89 638.12>
LayerCount: 2
Fore
SplineSet
417.939 -124 m 1xc0
 474.699 -69 515.461 -14 547.012 43 c 0
 552.969 53 556.738 60 560.3 69 c 0
 586.809 136 585.912 250 557.912 250 c 2
 552.912 250 l 1
 550.121 248 l 1
 248.727 247 l 1
 100.334 -123 l 1
 413.356 -128 l 1
 417.939 -124 l 1xc0
596.521 340 m 1
 601.499 345 l 1
 650.863 399 728.076 488 756.959 561 c 2
 760.916 571 l 1
 760.312 572 l 1
 760.29 577 762.051 632 725.163 698 c 1
 723.933 705 l 1xe0
 437.89 715 l 1xd0
 285.521 340 l 1
 596.521 340 l 1
436.244 -194 m 1
 77.4307 -191 l 1
 -1.96484 -192 l 1
 387.397 782 l 1
 405.793 783 422.793 783 446.188 784 c 2
 460.584 785 l 1
 755.584 785 l 1xd0
 836.989 738 853.294 668 834.542 565 c 0
 831.398 552 828.255 539 824.694 530 c 0
 797.395 461 696.312 342 631.2 276 c 1
 625.825 270 l 1
 626.452 264 l 1
 656.282 165 659.117 157 629.738 60 c 0
 625.782 50 625.595 47 623.617 42 c 0
 586.822 -51 474.07 -154 436.244 -194 c 1
EndSplineSet
EndChar

StartChar: C
Encoding: 67 67 17
Width: 779
GlyphClass: 2
Flags: W
HStem: -200 75<305.481 459.274> 710 71<631.117 818.157>
LayerCount: 2
Fore
SplineSet
653.109 -25 m 5
 663.361 -37 674.657 -59 665.951 -81 c 6
 662.392 -90 l 5
 659.995 -91 656.601 -92 655.204 -93 c 4
 576.235 -146 414.871 -200 348.871 -200 c 6
 343.871 -200 l 6
 287.871 -200 237.783 -180 194.4 -138 c 4
 105.426 -52 104.069 76 171.727 247 c 4
 246.503 436 374.468 628 539.076 718 c 4
 616.693 760 683.003 781 740.003 781 c 4
 829.003 781 919.286 716 952.564 651 c 5
 938.611 641 920.259 630 906.698 621 c 5
 890.611 641 868.504 666 824.02 685 c 5
 793.725 707 753.911 710 717.911 710 c 4
 669.911 710 615.185 693 555.338 658 c 4
 425.478 580 322.843 404 263.1 253 c 4
 207.709 113 202.791 2 265.515 -72 c 5
 297.061 -106 336.543 -125 382.543 -125 c 6
 391.543 -125 l 6
 458.543 -125 587.534 -77 646.735 -31 c 5
 653.109 -25 l 5
EndSplineSet
EndChar

StartChar: D
Encoding: 68 68 18
Width: 815
GlyphClass: 2
Flags: W
HStem: -204 74<125.416 401.409> 704 87<431.726 704.167>
LayerCount: 2
Fore
SplineSet
579.746 702 m 0
 551.746 702 524.538 704 482.538 704 c 2
 448.538 704 l 2
 441.538 704 435.582 694 429.646 679 c 0
 424.107 665 417.984 647 410.468 628 c 0
 347.954 470 193.301 69 151.756 -36 c 2
 141.865 -61 l 1
 136.283 -65 l 1
 140.699 -69 l 1
 139.116 -73 l 2
 135.16 -83 128.413 -95 124.457 -105 c 0
 122.082 -111 116.521 -120 124.334 -123 c 1
 147.356 -128 174.565 -130 201.565 -130 c 0
 240.565 -130 279.148 -126 305.731 -122 c 0
 371.082 -111 437.688 -112 506.306 -70 c 0
 633.77 7 713.722 156 773.86 308 c 0
 833.604 459 828.312 572 763.172 650 c 0
 731.207 688 629.351 701 579.746 702 c 0
388.584 785 m 1
 434.564 790 480.958 791 524.958 791 c 0
 586.958 791 641.771 788 672.584 785 c 0
 730.211 779 783.881 763 829.286 716 c 1
 922.281 625 933.265 491 859.673 305 c 0
 783.104 114 642.601 -92 533.026 -144 c 1
 436.453 -196 288.288 -204 175.288 -204 c 0
 143.288 -204 112.683 -203 87.6826 -203 c 2
 -3.31738 -203 l 1
 388.584 785 l 1
EndSplineSet
EndChar

StartChar: E
Encoding: 69 69 19
Width: 606
GlyphClass: 2
Flags: W
HStem: -196 78<107.313 445.383> 289 78<301.204 645.756> 722 78<442.658 809.072>
LayerCount: 2
Fore
SplineSet
472.313 -118 m 1
 464.214 -141 453.739 -170 443.453 -196 c 1
 75.4521 -196 l 1
 75.0566 -197 l 1
 -2.94336 -197 l 1
 388.332 797 l 1
 406.729 798 424.729 798 448.123 799 c 2
 460.521 800 l 1
 585.52 800 710.52 800 835.52 800 c 1
 827.419 777 816.946 748 806.658 722 c 1
 442.658 722 l 1
 439.89 715 l 2
 395.181 602 348.682 487 303.973 374 c 2
 301.204 367 l 1
 672.204 367 l 1
 664.103 344 653.629 315 643.343 289 c 1
 269.343 289 l 1
 107.313 -118 l 1
 472.313 -118 l 1
EndSplineSet
EndChar

StartChar: F
Encoding: 70 70 20
Width: 607
GlyphClass: 2
Flags: W
HStem: -197 21G<-2.94336 83.2021> 289 78<301.204 645.756> 722 77<442.658 809.072>
LayerCount: 2
Fore
SplineSet
672.204 367 m 1
 664.103 344 653.629 315 643.343 289 c 1
 269.343 289 l 1
 110.082 -111 l 1
 75.0566 -197 l 1
 -2.94336 -197 l 1
 388.332 797 l 1
 406.729 798 424.729 798 448.123 799 c 1
 460.123 799 l 2
 582.123 799 703.52 800 828.52 800 c 2
 835.52 800 l 1
 827.419 777 816.946 748 806.658 722 c 1
 442.658 722 l 1
 439.89 715 l 2
 395.181 602 348.682 487 303.973 374 c 2
 301.204 367 l 1
 672.204 367 l 1
EndSplineSet
EndChar

StartChar: G
Encoding: 71 71 21
Width: 787
GlyphClass: 2
Flags: W
HStem: -200 75<305.481 494.003> 139 74<518.877 682.995> 711 71<640.693 827.646>
LayerCount: 2
Fore
SplineSet
391.543 -125 m 2
 443.543 -125 539.204 -93 604.657 -59 c 1
 682.995 139 l 1
 489.6 138 l 1
 518.877 212 l 1
 720.273 213 l 1
 794.273 213 l 1
 683.096 -68 l 1
 587.113 -164 455.893 -205 380.893 -205 c 0
 366.893 -205 353.684 -203 344.871 -200 c 1
 343.871 -200 l 2
 287.871 -200 237.783 -180 194.4 -138 c 0
 105.426 -52 104.069 76 171.727 247 c 0
 246.503 436 383.864 629 548.473 719 c 0
 626.09 761 692.397 782 749.397 782 c 0
 838.397 782 929.681 717 961.968 652 c 1
 945.637 636 927.906 619 912.368 605 c 1
 897.259 630 878.898 667 833.417 686 c 1
 803.12 708 763.308 711 727.308 711 c 0
 679.308 711 625.185 693 565.338 658 c 1
 436.478 580 323.238 405 263.1 253 c 0
 207.709 113 202.791 2 265.515 -72 c 1
 297.061 -106 336.543 -125 382.543 -125 c 2
 391.543 -125 l 2
EndSplineSet
EndChar

StartChar: H
Encoding: 72 72 22
Width: 749
GlyphClass: 2
Flags: W
HStem: -201 21G<-6.52637 101.032 518.661 595.849> 278 94<299.183 706.782>
LayerCount: 2
Fore
SplineSet
-6.52637 -201 m 1
 123.83 131 255.186 463 384.749 793 c 1
 460.355 792 l 1
 457.584 785 l 2
 414.063 675 350.221 501 307.096 392 c 2
 299.183 372 l 1
 744.37 375 l 1
 909.938 796 l 1
 985.144 794 l 1
 982.376 787 l 2
 938.063 675 883.717 525 840.194 415 c 2
 824.765 376 l 1
 762.438 221 629.478 -110 595.849 -195 c 2
 594.661 -198 l 1
 518.661 -198 l 1
 706.782 280 l 1
 637.595 277 508.595 277 468.595 277 c 2
 260.99 278 l 1
 196.687 118 132.591 -44 69.4736 -201 c 1
 -6.52637 -201 l 1
EndSplineSet
EndChar

StartChar: I
Encoding: 73 73 23
Width: 387
GlyphClass: 2
Flags: W
HStem: -202 56<19.2354 96.2354 178.235 230.079> 695 48<383.968 432.977 508.582 583.373>
LayerCount: 2
Fore
SplineSet
254.235 -146 m 1
 230.079 -202 l 1
 163.871 -200 l 1
 -4.9209 -202 l 1
 19.2354 -146 l 1
 96.2354 -146 l 1
 432.977 695 l 1
 364.977 695 l 1
 383.968 743 l 1
 601.968 743 l 1
 583.373 696 l 1
 508.582 694 l 1
 178.235 -146 l 1
 254.235 -146 l 1
EndSplineSet
EndChar

StartChar: J
Encoding: 74 74 24
Width: 623
GlyphClass: 2
Flags: W
HStem: -208 75<165.753 318.407> 759 20G<772.298 794.211>
LayerCount: 2
Fore
SplineSet
545.252 -12 m 1
 464.148 -126 359.661 -198 205.706 -208 c 1
 149.706 -208 101.618 -188 56.8398 -147 c 0
 23.1045 -116 18.1836 -88 24.5137 -72 c 0
 29.6572 -59 44.2168 -50 65.2168 -50 c 0
 85.2168 -50 107.657 -59 127.951 -81 c 0
 161.104 -116 199.379 -133 244.379 -133 c 2
 251.379 -133 l 2
 314.379 -133 410.074 -63 466.065 -15 c 1
 780.211 779 l 5
 808.211 779 840.815 778 861.419 777 c 5
 545.252 -12 l 1
EndSplineSet
EndChar

StartChar: K
Encoding: 75 75 25
Width: 669
GlyphClass: 2
Flags: W
HStem: -199 21G<484.661 492.565> 762 20G<381.464 402.397 798.397 858.597>
LayerCount: 2
Fore
SplineSet
389.397 782 m 1
 415.397 782 445.003 781 464.606 780 c 1
 308.886 394 l 1
 798.397 782 l 1
 882.188 784 l 1
 308.904 298 l 1
 500.266 -199 l 1
 484.661 -198 l 2
 458.057 -197 426.849 -195 407.849 -195 c 1
 233.338 198 l 1
 77.4521 -196 l 1
 1.45215 -196 l 1
 389.397 782 l 1
EndSplineSet
EndChar

StartChar: L
Encoding: 76 76 26
Width: 676
GlyphClass: 2
Flags: W
HStem: -196 78<106.709 523.176>
LayerCount: 2
Fore
SplineSet
555.313 -118 m 1
 543.235 -146 529.762 -175 520.453 -196 c 1
 76.6396 -193 l 1
 75.4521 -196 l 1
 50.4521 -196 25.4521 -196 0.452148 -196 c 1
 391.729 798 l 1
 417.729 798 447.332 797 466.938 796 c 1
 106.709 -117 l 1
 555.313 -118 l 1
EndSplineSet
EndChar

StartChar: M
Encoding: 77 77 27
Width: 943
GlyphClass: 2
Flags: W
HStem: -199 21G<64.9043 81.8711 718.661 798.591>
LayerCount: 2
Fore
SplineSet
1020.72 386 m 1
 962.353 241 814.917 -119 782.266 -199 c 1
 718.661 -198 l 1
 741.214 -141 l 2
 798.978 5 767.557 -82 847.479 120 c 0
 885.459 216 948.556 378 1058.53 661 c 1
 1071.98 695 l 1
 505.034 38 l 1
 418.689 669 l 1
 407.029 637 l 2
 384.499 575 355.824 500 332.878 442 c 0
 325.756 424 318.029 407 312.49 393 c 0
 307.348 380 303.204 367 297.268 352 c 0
 240.294 208 151.504 -24 94.5303 -168 c 2
 81.8711 -200 l 1
 4.47363 -201 l 1
 125.335 107 250.48 441 369.363 744 c 1
 391.154 746 417.946 748 447.946 748 c 0
 464.946 748 479.55 747 490.759 745 c 1
 556.195 185 l 1
 1034.73 750 l 1
 1164.11 756 l 1
 1160.95 748 l 2
 1121.78 649 1067.41 504 1028.63 406 c 2
 1020.72 386 l 1
EndSplineSet
EndChar

StartChar: N
Encoding: 78 78 28
Width: 749
GlyphClass: 2
Flags: W
HStem: -201 21G<-6.52637 75.4082 539.244 597.432>
LayerCount: 2
Fore
SplineSet
-6.52637 -201 m 1
 123.83 131 255.186 463 384.749 793 c 1
 464.355 792 l 1
 464.771 788 l 1
 484.646 679 507.163 468 523.161 377 c 1
 539.803 275 564.73 108 588.252 -12 c 1
 594.778 -41 l 1
 605.627 -6 l 2
 632.257 79 671.403 183 706.386 279 c 1
 909.938 796 l 1
 985.144 794 l 1
 982.376 787 l 2
 938.063 675 872.638 497 829.117 387 c 0
 827.93 384 826.139 382 823.765 376 c 0
 762.23 223 626.709 -117 597.432 -191 c 2
 594.661 -198 l 1
 539.661 -198 l 1
 539.244 -194 l 1
 490.617 42 442.246 357 396.015 594 c 1
 390.511 618 l 1
 379.433 590 l 1
 344.803 505 309.382 418 285.642 358 c 2
 276.938 336 l 2
 216.799 184 135.548 -34 75.4082 -186 c 2
 69.4736 -201 l 1
 -6.52637 -201 l 1
EndSplineSet
EndChar

StartChar: O
Encoding: 79 79 29
Width: 906
GlyphClass: 2
Flags: W
HStem: -208 89<321.69 465.287> 697 84<654.692 812.628>
LayerCount: 2
Fore
SplineSet
400.917 -119 m 0
 454.917 -119 517.809 -94 585.031 -53 c 0
 712.891 25 804.413 135 865.738 290 c 0
 926.272 443 923.376 557 857.633 636 c 0
 825.063 675 784.768 697 734.768 697 c 0
 684.768 697 626.854 677 563.424 638 c 0
 431.376 557 339.69 439 275.99 278 c 0
 217.435 130 215.33 16 278.865 -61 c 1
 311.83 -99 351.917 -119 400.917 -119 c 0
182.221 271 m 0
 262.934 475 379.928 614 551.308 711 c 0
 633.902 758 702.003 781 762.003 781 c 0
 822.003 781 872.902 758 917.911 710 c 1
 1009.72 616 1020.92 480 944.948 288 c 0
 868.587 95 756.548 -34 587.962 -129 c 1
 497.388 -181 419.706 -208 354.706 -208 c 0
 295.706 -208 246.409 -186 203.005 -139 c 1
 112.8 -46 109.422 87 182.221 271 c 0
EndSplineSet
EndChar

StartChar: P
Encoding: 80 80 30
Width: 666
GlyphClass: 2
Flags: W
HStem: -207 21G<-7.71191 87.1> 173 83<368.307 486.901> 727 65<543.503 689.017>
LayerCount: 2
Fore
SplineSet
647.355 792 m 0
 689.355 792 724.419 777 755.55 747 c 0
 819.207 688 827.577 603 780.89 485 c 0
 733.807 366 658.573 282 547.23 223 c 0
 488.568 191 435.447 173 390.447 173 c 0
 350.447 173 315.777 189 286.252 218 c 0
 276.208 228 276.979 235 269.121 248 c 2
 264.287 256 l 1
 79.1006 -207 l 1
 -7.71191 -204 l 1
 316.181 602 l 1
 328.511 618 395.538 704 446.22 731 c 1
 512.166 789 604.355 792 647.355 792 c 0
544.716 295 m 0
 626.521 340 682.843 404 718.45 494 c 0
 753.664 583 748.381 648 703.185 693 c 0
 681.89 715 656.637 727 625.637 727 c 0
 594.637 727 559.286 716 520.582 694 c 0
 436.38 648 381.872 581 344.682 487 c 0
 310.655 401 310.543 335 354.738 290 c 0
 376.034 268 400.287 256 430.287 256 c 0
 463.287 256 502.221 271 544.716 295 c 0
EndSplineSet
EndChar

StartChar: Q
Encoding: 81 81 31
Width: 947
GlyphClass: 2
Flags: W
HStem: -208 89<321.259 465.554> 666 84<640.824 801.857>
LayerCount: 2
Fore
SplineSet
936.66 262 m 0
 885.226 132 818.409 44 729.339 -32 c 1
 809.652 -150 l 1
 730.914 -210 l 1
 649.995 -91 l 1
 628.853 -104 609.104 -116 585.962 -129 c 0
 495.388 -181 420.706 -208 354.706 -208 c 0
 295.706 -208 244.409 -186 201.005 -139 c 1
 109.405 -47 101.321 64 173.33 246 c 0
 253.251 448 369.455 585 540.438 681 c 0
 623.033 728 690.737 750 750.737 750 c 0
 810.737 750 863.033 728 908.042 680 c 1
 1000.24 587 1011.83 452 936.66 262 c 0
691.891 25 m 1
 761.422 87 815.513 158 857.452 264 c 0
 917.194 415 912.903 528 847.763 606 c 0
 814.798 644 773.504 666 723.504 666 c 0
 673.504 666 616.589 646 553.555 608 c 0
 421.903 528 329.611 411 266.704 252 c 0
 208.939 106 214.935 15 278.865 -61 c 0
 311.83 -99 349.917 -119 398.917 -119 c 0
 452.917 -119 516.809 -94 585.031 -53 c 0
 594.405 -47 603.778 -41 613.153 -35 c 1
 563.43 39 l 1
 643.17 99 l 1
 691.891 25 l 1
EndSplineSet
EndChar

StartChar: R
Encoding: 82 82 32
Width: 678
GlyphClass: 2
Flags: W
HStem: -210 21G<-7.71191 86.9696 404.893 505.049> 219 75<364.924 507.597> 719 73<525.565 697.99>
LayerCount: 2
Fore
SplineSet
646.355 792 m 0
 696.355 792 724.629 775 753.55 747 c 1
 821.911 710 834.247 587 814.068 536 c 2
 811.299 529 l 2
 764.217 410 688.982 326 578.034 268 c 0
 519.77 237 421.648 219 376.648 219 c 2
 364.648 219 l 1
 511.914 -210 l 1
 404.893 -205 l 1
 258.121 248 l 1
 79.1006 -207 l 1
 -7.71191 -204 l 1
 316.181 602 l 1
 328.511 618 395.142 703 445.823 730 c 1
 447.22 731 l 1
 513.166 789 603.355 792 646.355 792 c 0
607.473 719 m 0
 503.187 719 406.431 614.43 358.32 524 c 1
 343.285 486 l 2
 314.8 414 295.059 354 330.421 317 c 0
 350.508 297 412.321 294 444.321 294 c 0
 477.321 294 514.86 308 557.354 332 c 0
 640.161 377 696.48 441 731.694 530 c 1
 757.094 622 737.504 666 700.977 695 c 1
 680.286 716 640.473 719 607.473 719 c 0
EndSplineSet
EndChar

StartChar: S
Encoding: 83 83 33
Width: 991
GlyphClass: 2
Flags: WO
HStem: -209 79<275.319 526.618> 220 81<469.823 696.295> 675.2 85<535.549 741.113>
LayerCount: 2
Fore
SplineSet
246.225 362 m 1
 250.194 415 261.395 461 277.221 501 c 0
 277.246 501.064 277.271 501.128 277.297 501.192 c 0
 192.668 536.109 113.333 580.654 44.9004 620 c 1
 0.65332 693.744 l 1
 102.502 645.508 204.077 592.281 304.007 555.977 c 1
 350.855 635.616 418.39 684.654 480.286 716 c 0
 575.881 763 586.416 760.2 659.416 760.2 c 0
 731.433 760.2 794.595 737.815 852.56 690.166 c 1
 853.036 690.757 853.513 691.35 853.989 691.944 c 2
 857.499 686.096 l 1
 882.46 665.276 886.088 651.104 898.236 618.2 c 0
 900.861 612.2 901.281 608.2 898.906 602.2 c 0
 890.986 582.2 861 534.2 833 534.2 c 0
 827 534.2 825.396 535.2 822.791 536.2 c 1
 822.187 537.2 l 2
 822.118 538.236 822.041 539.264 821.956 540.286 c 1
 674.928 417.771 507.785 423.519 352.288 473.552 c 1
 346.342 451.047 330.312 420.196 355.743 381 c 1
 355.348 380 l 1
 411.839 313 576.069 306 649.091 301 c 1
 703.091 301 l 2
 818.091 301 828.217 180 802.104 114 c 0
 799.147 104 795.191 94 791.234 84 c 0
 747.317 -27 654.797 -137 566.739 -170 c 1
 496.288 -204 451.914 -210 402.914 -210 c 0
 381.914 -210 358.31 -209 333.31 -209 c 2
 329.31 -209 l 2
 321.31 -209 302.497 -206 292.497 -206 c 0
 213.497 -206 107.005 -139 77.3047 -70 c 0
 76.0967 -68 73.8877 -66 72.6787 -64 c 0
 68.0303 -53 70.0654 -15 76 0 c 0
 91.4297 39 134.76 55 160.947 58 c 1
 160.947 53 l 1
 162.2 41 142.791 2 147.835 -8 c 1
 146.67 -16 l 1
 179.436 -100 324.565 -130 423.565 -130 c 0
 432.565 -130 442.565 -130 450.962 -129 c 1
 476.962 -129 502.731 -122 552.018 -96 c 0
 553.413 -95 555.413 -95 556.809 -94 c 0
 618.096 -68 673.605 -1 699.32 64 c 0
 704.466 77 709.005 91 711.147 104 c 1
 728.16 147 707.043 220 651.043 220 c 0
 634.043 220 617.043 220 600.043 220 c 0
 455.043 220 292.813 227 246.225 362 c 1
787.876 620.79 m 1
 750.854 660.481 689.686 675.2 631.786 675.2 c 1
 570.916 668.557 579.857 671.025 510.798 644 c 1
 451.545 611.753 408.168 575.57 379.332 532.076 c 1
 520.918 494.373 658.435 502.585 787.876 620.79 c 1
EndSplineSet
EndChar

StartChar: T
Encoding: 84 84 34
Width: 860
GlyphClass: 2
Flags: W
HStem: -205 21G<305.893 394.875> 657 82<367.385 650.942 730.942 1045.19>
LayerCount: 2
Fore
SplineSet
1076.59 737 m 1
 1065.91 710 1051.46 676 1042.55 656 c 1
 730.942 657 l 1
 386.893 -205 l 1
 305.893 -205 l 1
 650.942 657 l 1
 334.942 657 l 1
 367.385 739 l 1
 1076.59 737 l 1
EndSplineSet
EndChar

StartChar: U
Encoding: 85 85 35
Width: 862
GlyphClass: 2
Flags: W
HStem: -223 97<318.09 492.314>
LayerCount: 2
Fore
SplineSet
196.122 -166 m 5
 124.566 -84 135.43 39 189.525 201 c 1
 198.208 228 l 1
 264.469 398 333.707 573 399.571 742 c 1
 486.55 747 l 1
 443.237 635 302.969 283 278.648 219 c 1
 231.817 88 235.022 -5 285.515 -72 c 0
 310.457 -105 343.148 -126 382.148 -126 c 0
 421.148 -126 486.543 -125 544.369 -85 c 0
 615.361 -37 663.034 38 708.126 109 c 1
 709.709 113 l 1
 733.282 165 796.003 321 836.756 424 c 0
 869.199 506 915.468 628 935.999 690 c 2
 953.368 744 l 1
 1031.76 745 l 1
 962.352 562 898.995 369 821.447 173 c 0
 804.83 131 787.213 89 769.595 47 c 1
 666.104 -116 517.77 -223 384.77 -223 c 0
 372.77 -223 230.714 -210 196.122 -166 c 5
EndSplineSet
EndChar

StartChar: V
Encoding: 86 86 36
Width: 782
GlyphClass: 2
Flags: W
LayerCount: 2
Fore
SplineSet
275.849 -195 m 1
 369.133 751 l 1
 445.133 751 l 1
 376.196 -45 l 1
 926.925 753 l 1
 1001.92 753 l 1
 358.849 -195 l 1
 275.849 -195 l 1
EndSplineSet
EndChar

StartChar: W
Encoding: 87 87 37
Width: 1034
GlyphClass: 2
Flags: W
HStem: -198 21G<207.662 279.408 619.661 691.541> 761 20G<775.1 840.003>
VStem: 362.319 54<710.911 754>
LayerCount: 2
Fore
SplineSet
761.007 642 m 1
 267.662 -198 l 1
 207.662 -198 l 1
 362.319 754 l 1
 416.319 754 l 1
 306.713 -26 l 1
 787.003 781 l 1
 840.003 781 l 1
 712.713 -26 l 1
 1191.72 755 l 1
 1245.72 755 l 1
 679.661 -198 l 1
 619.661 -198 l 1
 761.007 642 l 1
EndSplineSet
EndChar

StartChar: X
Encoding: 88 88 38
Width: 765
GlyphClass: 2
Flags: W
HStem: -201 21G<-7.52637 106.152 508.341 598.475>
VStem: 510.475 88<-201 -152.151>
LayerCount: 2
Fore
SplineSet
598.475 -201 m 1
 510.475 -201 l 1
 465.021 225 l 1
 88.4736 -201 l 1
 -7.52637 -201 l 1
 441.782 280 l 1
 364.133 751 l 1
 452.133 751 l 1
 519.578 373 l 1
 874.319 754 l 1
 971.716 755 l 1
 530.408 274 l 1
 598.475 -201 l 1
EndSplineSet
EndChar

StartChar: Y
Encoding: 89 89 39
Width: 872
GlyphClass: 2
Flags: W
HStem: -198 21G<257.662 346.534> 760 20G<385.606 477.029 895.793 973.146>
LayerCount: 2
Fore
SplineSet
537.069 306 m 1
 338.661 -198 l 1
 257.662 -198 l 1
 453.277 304 l 1
 385.606 780 l 1
 473.606 780 l 1
 536.403 413 l 1
 895.793 783 l 1
 992.188 784 l 1
 537.069 306 l 1
EndSplineSet
EndChar

StartChar: Z
Encoding: 90 90 40
Width: 812
GlyphClass: 2
Flags: W
HStem: -197 86<170.082 646.057> 700 83<392.98 838.955> 707 79<392.98 804.143>
LayerCount: 2
Fore
SplineSet
-1.33789 -198 m 1xc0
 838.955 700 l 1
 810.955 700 l 1xc0
 665.746 702 512.933 705 361.725 707 c 1
 392.98 786 l 1xa0
 1017.8 783 l 1
 434.534 153 l 1
 170.082 -111 l 1
 198.082 -111 l 1
 354.688 -112 517.896 -114 680.499 -115 c 1
 646.057 -197 l 1
 72.0566 -197 l 1
 71.6621 -198 l 1
 -1.33789 -198 l 1xc0
EndSplineSet
EndChar

StartChar: bracketleft
Encoding: 91 91 41
Width: 397
GlyphClass: 2
Flags: W
HStem: -197 56<185.214 237.057> 715 48<521.099 595.89>
LayerCount: 2
Fore
SplineSet
81.4521 -196 m 1
 464.484 762 l 1
 614.881 763 l 1
 595.89 715 l 1
 521.099 713 l 1
 185.214 -141 l 1
 261.214 -141 l 1
 237.057 -197 l 1
 81.4521 -196 l 1
EndSplineSet
EndChar

StartChar: backslash
Encoding: 92 92 42
Width: 435
GlyphClass: 2
Flags: W
HStem: 755 20G<393.922 466.629>
VStem: 217.849 248.78
LayerCount: 2
Fore
SplineSet
397.629 775 m 1
 466.629 775 l 1
 283.244 -194 l 1
 217.849 -195 l 1
 397.629 775 l 1
EndSplineSet
EndChar

StartChar: bracketright
Encoding: 93 93 43
Width: 397
GlyphClass: 2
Flags: W
HStem: -197 48<41.0488 115.84> 707 56<398.881 451.725>
LayerCount: 2
Fore
SplineSet
554.484 762 m 1
 172.453 -196 l 1
 22.0566 -197 l 1
 41.0488 -149 l 1
 115.84 -147 l 1
 451.725 707 l 1
 375.725 707 l 1
 398.881 763 l 1
 554.484 762 l 1
EndSplineSet
EndChar

StartChar: asciicircum
Encoding: 94 94 44
Width: 575
GlyphClass: 2
Flags: HMW
LayerCount: 2
Fore
SplineSet
564.123 799 m 1
 673.123 799 l 1
 722.702 482 l 1
 633.89 485 l 1
 603.22 731 l 1
 585.012 733 l 1
 354.682 487 l 1
 267.494 484 l 1
 564.123 799 l 1
EndSplineSet
EndChar

StartChar: underscore
Encoding: 95 95 45
Width: 566
GlyphClass: 2
Flags: HMW
LayerCount: 2
Fore
SplineSet
-20.6865 -118 m 5
 481.313 -118 l 5
 447.288 -204 l 5
 -54.7119 -204 l 5
 -20.6865 -118 l 5
EndSplineSet
EndChar

StartChar: grave
Encoding: 96 96 46
Width: 270
GlyphClass: 2
Flags: HMW
LayerCount: 2
Fore
SplineSet
337.166 789 m 1
 439.166 789 l 1
 457.412 595 l 1
 415.598 598 l 1
 337.166 789 l 1
EndSplineSet
EndChar

StartChar: a
Encoding: 97 97 47
Width: 885
GlyphClass: 2
Flags: W
HStem: -213 70<225.889 374.038> 335 73<361.012 496.102>
LayerCount: 2
Fore
SplineSet
276.497 -213 m 0
 233.546 -213 194.49 -198.263 158.22 -168.619 c 0
 86.5732 -109.993 67.2715 -24.6416 99.6758 93.9219 c 0
 132.344 213.428 198.117 298.608 302.744 357.854 c 0
 359.765 390.039 410.83 408 457.709 408 c 0
 499.65 408 537.476 393.264 572.667 364.623 c 0
 584.641 354.742 595.32 343.908 603.744 332.158 c 0
 604.987 330.423 l 1
 606.818 331.172 l 0
 634.917 342.67 635.18 374.737 647.95 399.817 c 1
 709.816 392.096 l 1
 611.244 192.618 541.308 -7.78027 621.041 -134.216 c 0
 622.554 -136.593 l 1
 624.656 -135.082 l 0
 659.112 -110.327 640.944 -26.4082 725.617 34.04 c 1
 795.055 29.0117 l 1
 665.033 -71.7842 774.256 -227.117 577.292 -192.207 c 1
 551.17 -162.312 531.157 -134.123 541.685 -93.3242 c 0
 543.898 -84.7451 l 1
 537.521 -90.585 l 0
 480.603 -142.688 497.756 -130.366 426.859 -180.411 c 0
 378.783 -214.348 320.121 -213 276.497 -213 c 0
170.55 94.6436 m 0
 145.918 4.21387 158.222 -61.8438 208.846 -108.293 c 0
 233.995 -130.681 262.062 -143 293.425 -143 c 0
 324.69 -143 358.744 -131.809 395.639 -109.679 c 0
 472.965 -62.8496 518.978 4.50098 544.635 100.003 c 0
 568.074 187.251 561.517 255.344 511.943 300.914 c 1
 486.797 323.564 459.408 335 429.072 335 c 0
 395.726 335 357.97 320.627 317.609 296.237 c 0
 242.582 250.445 195.382 186.162 170.55 94.6436 c 0
EndSplineSet
EndChar

StartChar: b
Encoding: 98 98 48
Width: 666
GlyphClass: 2
Flags: W
HStem: -219 69<212.265 344.156> 330 72<384.583 522.011> 756 20G<384.09 458.023>
LayerCount: 2
Fore
SplineSet
480.052 402 m 0
 526.052 402 565.93 384 600.268 352 c 0
 665.926 293 674.294 208 627.213 89 c 0
 580.526 -29 504.499 -115 393.157 -174 c 0
 338.288 -204 288.352 -219 246.352 -219 c 0
 204.352 -219 168.288 -204 136.762 -175 c 0
 121.301 -161 109.235 -146 98.9609 -129 c 1
 62.166 -222 l 1
 -3.83398 -222 l 1
 392.023 776 l 1
 458.023 776 l 1
 277.003 321 l 1
 296.543 335 316.29 347 337.642 358 c 0
 392.117 387 439.052 402 480.052 402 c 0
188.587 95 m 0
 150.605 -1 152.306 -70 199.709 -117 c 0
 221.005 -139 247.652 -150 277.652 -150 c 0
 307.652 -150 343.4 -138 382.104 -116 c 0
 463.306 -70 520.813 -3 556.817 88 c 0
 593.217 180 587.935 245 542.134 291 c 1
 519.025 316 490.564 330 458.564 330 c 0
 429.564 330 396.212 319 356.112 296 c 0
 275.31 251 223.403 183 188.587 95 c 0
EndSplineSet
EndChar

StartChar: c
Encoding: 99 99 49
Width: 606
GlyphClass: 2
Flags: W
HStem: -218 72<207.155 334.079> 334 69<394.348 532.69>
LayerCount: 2
Fore
SplineSet
390.457 -105 m 1
 406.665 -107 415.17 -131 406.466 -153 c 0
 403.695 -160 398.322 -166 393.136 -169 c 0
 332.475 -201 279.748 -218 233.748 -218 c 0
 192.748 -218 157.684 -203 127.157 -174 c 0
 64.1045 -116 62.9209 -28 107.631 85 c 0
 157.086 210 231.904 298 347.039 359 c 0
 401.513 388 449.446 403 491.446 403 c 0
 557.446 403 626.457 355 643.069 306 c 1
 647.299 299 645.738 290 641.782 280 c 0
 639.012 273 635.638 267 632.474 259 c 0
 621.396 231 612.67 214 583.525 201 c 0
 566.756 194 549.777 189 536.777 189 c 0
 524.777 189 514.36 193 504.129 200 c 0
 483.272 213 481.396 231 491.682 257 c 0
 501.178 281 516.112 296 536.651 310 c 1
 516.586 325 493.146 334 468.146 334 c 0
 438.146 334 403.795 323 364.694 300 c 1
 280.1 253 224.195 185 186.213 89 c 0
 151.395 1 150.097 -68 194.291 -113 c 0
 215.587 -135 240.235 -146 269.235 -146 c 0
 304.235 -146 343.356 -128 390.457 -105 c 1
EndSplineSet
EndChar

StartChar: d
Encoding: 100 100 50
Width: 670
GlyphClass: 2
Flags: W
HStem: -213 69<207.41 345.16> 336 72<406.77 531.646> 757 20G<822.023 879.506>
LayerCount: 2
Fore
SplineSet
466.334 -123 m 1
 442.608 -140 418.675 -155 392.136 -169 c 0
 337.661 -198 289.728 -213 247.728 -213 c 0
 205.728 -213 167.662 -198 136.53 -168 c 0
 71.874 -109 63.9004 -23 110.587 95 c 0
 157.669 214 233.299 299 345.642 358 c 0
 405.304 390 459.425 408 505.425 408 c 0
 546.425 408 581.49 393 613.016 364 c 0
 625.664 353 635.916 341 644.377 327 c 1
 822.023 776 l 1
 887.419 777 l 1
 494.936 -215 l 1
 429.541 -216 l 1
 466.334 -123 l 1
469.938 336 m 0
 437.938 336 398.399 322 355.508 297 c 1
 273.31 251 216.591 186 180.191 94 c 0
 144.187 3 148.68 -64 193.478 -110 c 0
 214.774 -132 241.026 -144 271.026 -144 c 0
 301.026 -144 336.379 -133 375.082 -111 c 0
 459.68 -64 515.978 5 553.961 101 c 0
 588.777 189 590.682 257 545.486 302 c 0
 523.586 325 498.938 336 469.938 336 c 0
EndSplineSet
EndChar

StartChar: e
Encoding: 101 101 51
Width: 654
GlyphClass: 2
Flags: W
HStem: -220 72<207.041 359.526> 57 82<202.995 573.386> 334 69<387.791 525.226>
LayerCount: 2
Fore
SplineSet
625.564 100 m 0
 618.84 83 613.694 70 607.552 57 c 1
 169.552 57 l 1
 146.67 -16 150.116 -73 188.291 -113 c 0
 210.191 -136 267.443 -148 297.443 -148 c 0
 329.443 -148 368.983 -134 412.478 -110 c 0
 416.27 -108 422.061 -106 426.061 -106 c 0
 443.061 -106 455.543 -125 447.631 -145 c 0
 444.07 -154 435.51 -163 421.739 -170 c 0
 361.079 -202 307.957 -220 261.957 -220 c 0
 219.957 -220 151.684 -203 121.157 -174 c 0
 64.126 -121 57.5908 -44 90.3652 54 c 1
 94.1123 66 l 1
 103.741 90.333 113.367 114.667 122.995 139 c 1
 125.995 139 l 1
 175.374 236 243.464 307 341.039 359 c 0
 395.513 388 443.446 403 486.446 403 c 0
 529.446 403 566.513 388 597.643 358 c 0
 653.464 307 666.979 235 640.182 142 c 1
 637.413 135 l 1
 635.644 128 631.501 115 625.564 100 c 0
202.995 139 m 1
 568.995 139 l 1
 587.086 210 578.869 260 540.299 299 c 0
 518.398 322 493.146 334 463.146 334 c 0
 433.146 334 398.795 323 358.694 300 c 0
 289.266 261 240.086 210 202.995 139 c 1
EndSplineSet
EndChar

StartChar: f
Encoding: 102 102 52
Width: 748
GlyphClass: 2
Flags: W
HStem: 243.758 67.4805<233.415 341.22 430.094 585.248>
LayerCount: 2
Fore
SplineSet
701.605 690 m 1
 698.711 682.893 l 1
 716.273 665.418 703.504 624.141 640.328 635.995 c 1
 632.94 635.578 611.835 614.562 609.224 611.874 c 0
 568.979 570.94 578.191 580.331 555.115 550.387 c 1
 505.024 490.253 460.653 419.249 434.433 327.905 c 2
 434.337 327.571 l 1
 434.223 327.263 l 2
 432.5 322.661 432.04 318.469 430.094 313.259 c 1
 430.094 313.259 581.18 311.406 596.188 311.238 c 2
 603.1 311.159 l 1
 585.248 243.758 l 1
 409.404 245.695 l 1
 394.712 193.669 321.802 -61.3232 319.599 -69.0234 c 0
 256.4 -238.354 203.409 -367.111 94.5039 -429.003 c 1
 90.1191 -431.808 l 1
 34.3066 -406.099 l 1
 41.0859 -396.306 l 1
 111.773 -340.98 215.039 -207.137 241.989 -96.5664 c 0
 246.944 -78.4941 250.439 -60.6758 255.546 -42.6055 c 0
 282.635 54.2461 313.054 152.91 341.22 248.271 c 1
 214.633 249.22 l 1
 233.415 316.754 l 1
 360.928 315.8 l 2
 361.074 316.76 360.957 315.992 361.104 316.952 c 2
 361.15 317.268 l 1
 361.334 317.863 l 2
 398.369 440.685 474.483 536.669 546.396 612.104 c 1
 577.707 648.267 589.447 661.056 621.213 692.643 c 1
 621.39 693.476 l 1
 622.233 694.824 l 2
 628.148 704.274 655.312 704.849 666.673 706.932 c 1
 667.808 711.537 l 1
 672.519 713.078 l 2
 674.867 713.845 677.701 714.177 680.322 714.177 c 0
 697.474 714.177 700.593 693.167 700.593 693.167 c 2
 700.904 692.192 700.736 692.718 701.047 691.744 c 2
 701.605 690 l 1
EndSplineSet
EndChar

StartChar: g
Encoding: 103 103 53
Width: 732
GlyphClass: 2
Flags: W
HStem: -716 64<21.5829 193.717> -285 62<157.62 342.158> -159 73<209.159 330.162> 334 68<373.464 501.399>
LayerCount: 2
Fore
SplineSet
351.277 304 m 0
 278.055 263 230.712 204 197.083 119 c 0
 166.617 42 164.482 -19 202.053 -58 c 0
 221.534 -77 243.974 -86 269.974 -86 c 0
 297.974 -86 331.722 -74 370.031 -53 c 0
 439.857 -13 489.409 44 521.457 125 c 0
 553.107 205 550.055 263 511.882 303 c 0
 492.398 322 471.146 334 444.146 334 c 0
 417.146 334 386.19 324 351.277 304 c 0
-40.7246 -477 m 0
 -66.8379 -543 -41.8291 -591 13.3232 -626 c 0
 40.5967 -643 70.0371 -652 103.037 -652 c 0
 139.037 -652 180.389 -641 225.906 -622 c 0
 309.753 -587 361.536 -537 389.628 -466 c 0
 417.322 -396 404.105 -346 349.953 -311 c 0
 322.679 -294 292.24 -285 258.24 -285 c 0
 224.24 -285 187.074 -293 146.349 -310 c 0
 58.709 -347 -11.8428 -404 -40.7246 -477 c 0
170.026 -144 m 1
 170.652 -150 169.695 -160 167.322 -166 c 0
 163.366 -176 156.597 -183 150.662 -198 c 2
 145.123 -212 l 2
 139.583 -226 133.044 -240 119.923 -258 c 1
 178.626 -236 230.77 -223 278.77 -223 c 0
 327.77 -223 371.021 -235 411.526 -259 c 0
 490.931 -306 511.027 -374 473.837 -468 c 0
 436.249 -563 363.136 -629 245.54 -676 c 0
 181.649 -701 122.714 -716 69.7139 -716 c 0
 21.7139 -716 -20.5381 -704 -60.4375 -681 c 0
 -138.237 -635 -150.938 -566 -115.329 -476 c 0
 -88.8213 -409 -46.4561 -355 14.5576 -312 c 1
 15.5576 -312 l 1
 52.5703 -269 61.4824 -249 76.123 -212 c 0
 95.1123 -164 104.356 -128 107.557 -82 c 0
 107.951 -81 107.557 -82 106.952 -81 c 0
 82.1309 -30 90.2441 36 121.501 115 c 0
 166.208 228 233.464 307 335.225 362 c 0
 384.513 388 428.052 402 467.052 402 c 0
 507.052 402 541.117 387 570.434 360 c 1
 572.622 363 668.911 480 691.991 508 c 1
 774.991 508 l 1
 602.442 312 l 1
 624.66 262 621.129 200 590.269 122 c 0
 547.935 15 479.865 -61 379.896 -114 c 0
 323.026 -144 278.093 -159 235.093 -159 c 0
 211.093 -159 188.466 -153 170.026 -144 c 1
EndSplineSet
EndChar

StartChar: h
Encoding: 104 104 54
Width: 662
GlyphClass: 2
Flags: W
HStem: -202 19G<-3.9209 66.1118 441.866 502.079> 333 70<387.187 524.343>
LayerCount: 2
Fore
SplineSet
422.564 790 m 2
 454.564 790 l 1
 271.399 322 l 1
 292.96 331 l 1
 307.916 341 324.477 350 340.039 359 c 0
 395.513 388 442.446 403 485.446 403 c 0
 528.446 403 564.513 388 596.643 358 c 0
 660.694 300 667.648 219 626.147 104 c 1
 584.791 2 543.039 -101 502.079 -202 c 1
 430.288 -204 l 1
 453.443 -148 533.991 48 544.674 75 c 2
 558.126 109 l 1
 588.756 194 583.495 254 539.904 298 c 0
 517.607 320 492.751 333 461.751 333 c 0
 431.751 333 396.003 321 356.299 299 c 0
 304.825 270 252.791 232 220.195 185 c 1
 198.203 137 147.33 16 112.515 -72 c 0
 97.874 -109 87.0049 -139 81.2783 -156 c 0
 75.2119 -171.333 69.1445 -186.667 63.0791 -202 c 1
 -3.9209 -202 l 1
 -1.15137 -195 l 2
 80.748 12 302.29 577 383.793 783 c 2
 386.958 791 l 1
 398.564 790 411.564 790 422.564 790 c 2
EndSplineSet
EndChar

StartChar: i
Encoding: 105 105 55
Width: 270
GlyphClass: 2
Flags: W
HStem: -198 21G<15.6621 95.6751> 384 20G<245.93 328.052> 538 131<342.511 399.515>
LayerCount: 2
Fore
SplineSet
308.181 602 m 0
 322.029 637 359.689 669 398.689 669 c 0
 435.689 669 448.029 637 434.972 604 c 0
 421.124 569 380.86 538 342.86 538 c 0
 305.86 538 295.124 569 308.181 602 c 0
328.052 402 m 1
 87.6621 -198 l 1
 15.6621 -198 l 1
 253.843 404 l 1
 328.052 402 l 1
EndSplineSet
EndChar

StartChar: j
Encoding: 106 106 56
Width: 270
GlyphClass: 2
Flags: W
HStem: 384 20G<175.93 258.052> 538 131<271.557 329.039>
LayerCount: 2
Fore
SplineSet
238.181 602 m 0
 252.029 637 287.689 669 326.689 669 c 0
 363.689 669 378.029 637 364.972 604 c 0
 351.124 569 309.86 538 271.86 538 c 0
 234.86 538 225.124 569 238.181 602 c 0
-234.942 -427 m 1
 -158.851 -356 -94.1777 -281 -54.3379 -198 c 1
 -25.0391 -129 2.65723 -59 29.9561 10 c 0
 79.0166 134 126.475 259 175.534 383 c 2
 183.843 404 l 1
 258.052 402 l 1
 224.817 318 l 2
 175.756 194 84.3613 -37 17.6621 -198 c 0
 -20.3428 -289 -129.326 -385 -213.438 -451 c 1
 -234.942 -427 l 1
EndSplineSet
EndChar

StartChar: k
Encoding: 107 107 57
Width: 596
GlyphClass: 2
Flags: W
HStem: -197 18G<0.0566406 74.687 318.453 397.237> 763 20G<375.962 450.793>
LayerCount: 2
Fore
SplineSet
217.513 158 m 1
 407.871 -200 l 1
 318.453 -196 l 1
 175.026 86 l 1
 67.0566 -197 l 1
 0.0566406 -197 l 1
 383.793 783 l 1
 450.793 783 l 1
 232.396 231 l 1
 562.911 480 l 1
 590.878 442 l 1
 217.513 158 l 1
EndSplineSet
EndChar

StartChar: l
Encoding: 108 108 58
Width: 260
GlyphClass: 2
Flags: W
HStem: -226 21G<1.56684 70.957>
LayerCount: 2
Fore
SplineSet
410.072 627 m 5
 376.838 543 l 2
 269.221 271 192.422 87 73.7266 -213 c 2
 70.957 -220 l 1
 -6.41699 -226 l 1
 331.698 621 l 5
 410.072 627 l 5
EndSplineSet
EndChar

StartChar: m
Encoding: 109 109 59
Width: 1185
GlyphClass: 2
Flags: W
HStem: 303 77<379.778 536.368> 314 65<853.609 1007.81>
LayerCount: 2
Fore
SplineSet
135.8 -46 m 0x80
 121.16 -83 110.291 -113 104.17 -131 c 1
 83.9912 -182 l 1
 6.99121 -182 l 1
 229.348 380 l 1
 320.348 380 l 1x80
 293.839 313 l 1
 308.795 323 320.96 331 336.125 339 c 0
 395.6 368 446.534 383 493.534 383 c 0
 540.534 383 581.6 368 616.729 338 c 0
 630.377 327 640.234 314 650.091 301 c 2
 655.926 293 l 1
 663.948 288 l 2
 670.969 283 678.573 282 686.573 282 c 0
 707.573 282 730.926 293 751.673 305 c 1
 769.025 316 784.982 326 802.543 335 c 0
 862.016 364 912.951 379 959.951 379 c 0
 1006.95 379 1046.42 365 1083.34 337 c 0
 1142.74 290 1163.86 217 1124.94 106 c 1
 1124.54 105 l 1
 1086.33 16 1048.72 -74 1011.11 -164 c 1
 1005.57 -178 l 1
 919.782 -180 l 1
 926.113 -164 l 1
 952.247 -103 1030.49 72 1046.12 109 c 1
 1073.99 187 1066.75 242 1021.58 282 c 0
 997.488 302 970.234 314 938.234 314 c 0x40
 906.234 314 869.882 303 829.969 283 c 0
 777.682 257 726.835 222 695.612 181 c 1
 689.073 167 680.951 149 671.248 127 c 0
 670.457 125 670.666 123 669.874 121 c 2
 667.501 115 l 1
 635.244 36 602.591 -44 569.939 -124 c 0
 567.565 -130 568.565 -130 566.191 -136 c 2
 546.991 -182 l 1
 462.201 -184 l 1
 468.136 -169 l 2
 484.752 -127 535.813 -3 558.178 51 c 1
 570.234 84 580.104 114 591.765 146 c 1
 602.503 206 584.747 242 549.617 272 c 0
 525.529 292 497.882 303 465.882 303 c 0
 385.882 303 273.979 235 230.03 177 c 1
 210.413 135 166.265 31 135.8 -46 c 0x80
EndSplineSet
EndChar

StartChar: n
Encoding: 110 110 60
Width: 678
GlyphClass: 2
Flags: W
HStem: -202 19G<-5.9209 78.9923 447.585 520.079> 323 80<390.063 532.466>
LayerCount: 2
Fore
SplineSet
438.288 -204 m 1
 456.883 -157 541.991 48 552.674 75 c 2
 565.73 108 l 1
 595.174 190 590.121 248 545.738 290 c 0
 523.442 312 496.795 323 465.795 323 c 0
 434.795 323 399.442 312 360.134 291 c 0
 308.055 263 258.417 226 227.403 183 c 1
 205.809 136 156.913 20 122.888 -66 c 0
 108.248 -103 97.3789 -133 91.2578 -151 c 1
 71.0791 -202 l 1
 -5.9209 -202 l 1
 232.261 400 l 1
 323.261 400 l 1
 296.751 333 l 1
 311.312 342 324.873 351 340.039 359 c 0
 397.513 388 448.446 403 493.446 403 c 0
 538.446 403 578.513 388 612.643 358 c 0
 677.091 301 686.043 220 646.126 109 c 1
 604.373 6 561.436 -100 520.079 -202 c 1
 438.288 -204 l 1
EndSplineSet
EndChar

StartChar: o
Encoding: 111 111 61
Width: 688
GlyphClass: 2
Flags: W
HStem: -218 83<219.314 349.637> 323 80<400.148 542.466>
LayerCount: 2
Fore
SplineSet
401.226 -98 m 0
 482.635 -54 536.165 8 570.982 96 c 0
 605.403 183 601.33 246 555.738 290 c 0
 533.442 312 506.795 323 475.795 323 c 0
 444.795 323 409.839 313 370.134 291 c 0
 286.33 246 233.612 181 197.213 89 c 0
 163.583 4 163.262 -60 207.247 -103 c 0
 229.543 -125 255.587 -135 285.587 -135 c 0
 318.587 -135 357.731 -122 401.226 -98 c 0
350.039 359 m 0
 407.513 388 458.446 403 503.446 403 c 0
 548.446 403 588.513 388 622.643 358 c 0
 689.299 299 698.273 213 651.587 95 c 0
 604.504 -24 527.874 -109 413.53 -168 c 0
 350.871 -200 295.748 -218 245.748 -218 c 0
 201.748 -218 162.684 -203 129.157 -174 c 0
 64.1045 -116 62.9209 -28 107.631 85 c 0
 156.69 209 232.904 298 350.039 359 c 0
EndSplineSet
EndChar

StartChar: p
Encoding: 112 112 62
Width: 668
GlyphClass: 2
Flags: W
HStem: -684 21G<-200.625 -111.712> -218 73<207.221 333.794> 333 70<395.979 533.333>
LayerCount: 2
Fore
SplineSet
274.839 313 m 1
 298.564 330 322.499 345 348.039 359 c 0
 403.513 388 450.446 403 493.446 403 c 0
 536.446 403 572.513 388 604.643 358 c 0
 669.299 299 678.273 213 631.587 95 c 0
 584.504 -24 507.874 -109 395.53 -168 c 0
 334.871 -200 282.748 -218 235.748 -218 c 0
 193.748 -218 158.684 -203 127.157 -174 c 0
 114.51 -163 104.652 -150 96.7969 -137 c 1
 -119.625 -684 l 1
 -200.625 -684 l 1
 230.634 406 l 1
 311.634 406 l 1
 274.839 313 l 1
386.665 -107 m 0
 468.865 -61 524.583 4 560.982 96 c 0
 596.986 187 592.704 252 547.904 298 c 0
 526.003 321 500.751 333 469.751 333 c 0
 438.751 333 404.003 321 364.299 299 c 0
 279.704 252 225.195 185 187.213 89 c 0
 152.791 2 150.492 -67 194.688 -112 c 0
 215.983 -134 241.631 -145 271.631 -145 c 0
 304.631 -145 343.17 -131 386.665 -107 c 0
EndSplineSet
EndChar

StartChar: q
Encoding: 113 113 63
Width: 672
GlyphClass: 2
Flags: W
HStem: -687 21G<249.101 310.583> -221 73<210.52 351.123> 330 70<390.831 521.119>
LayerCount: 2
Fore
SplineSet
134.345 -171 m 0
 68.6875 -112 59.3174 -27 106.399 92 c 0
 153.086 210 230.112 296 341.457 355 c 0
 397.326 385 445.261 400 488.261 400 c 0
 531.261 400 566.325 385 598.852 356 c 0
 614.312 342 625.982 326 635.651 310 c 1
 672.446 403 l 1
 741.843 404 l 1
 310.583 -686 l 1
 241.188 -687 l 1
 457.608 -140 l 1
 439.466 -153 419.322 -166 397.97 -177 c 0
 343.497 -206 296.562 -221 254.562 -221 c 0
 207.562 -221 169.684 -203 134.345 -171 c 0
535.112 296 m 0
 513.212 319 487.564 330 456.564 330 c 0
 425.564 330 390.421 317 350.716 295 c 0
 269.518 249 213.799 184 177.796 93 c 0
 141.395 1 145.68 -64 191.478 -110 c 0
 214.983 -134 243.443 -148 276.443 -148 c 0
 306.443 -148 339.797 -137 379.499 -115 c 0
 459.306 -70 511.605 -1 546.026 86 c 0
 584.009 182 582.518 249 535.112 296 c 0
EndSplineSet
EndChar

StartChar: r
Encoding: 114 114 64
Width: 658
GlyphClass: 2
Flags: W
HStem: -202 21G<-5.9209 64.1118> 333 70<384.752 522.575>
LayerCount: 2
Fore
SplineSet
492.513 158 m 0
 504.382 188 531.273 213 562.438 221 c 1
 559.452 264 573.452 264 537.299 299 c 0
 515.003 321 489.751 333 459.751 333 c 0
 429.751 333 393.003 321 354.299 299 c 0
 302.825 270 250.791 232 218.195 185 c 1
 196.203 137 145.33 16 110.515 -72 c 0
 95.874 -109 85.0049 -139 79.2783 -156 c 0
 73.2119 -171.333 67.1445 -186.667 61.0791 -202 c 1
 -5.9209 -202 l 1
 232.261 400 l 1
 313.261 400 l 1
 284.377 327 l 1
 300.729 338 320.081 349 338.039 359 c 0
 392.513 388 440.446 403 483.446 403 c 0
 526.446 403 562.513 388 594.643 358 c 1
 630.564 330 652.551 287 619.591 186 c 1
 623.591 186 615.49 163 614.305 160 c 0
 600.852 126 563.378 97 526.378 97 c 0
 488.378 97 480.248 127 492.513 158 c 0
622.36 193 m 1
 622.36 193 l 1
EndSplineSet
EndChar

StartChar: s
Encoding: 115 115 65
Width: 621
GlyphClass: 2
Flags: W
HStem: -226 71<189.728 368.648> -225 78<175.349 271.915> 346 72<363.166 526.167>
LayerCount: 2
Fore
SplineSet
272.07 -154 m 0x60
 286.07 -154 294.675 -155 303.675 -155 c 0
 319.675 -155 333.675 -155 365.191 -136 c 0
 401.896 -114 444.262 -60 458.504 -24 c 0
 466.417 -4 448.683 27 420.639 37 c 0
 307.257 79 80.1426 13 156.899 207 c 0
 182.617 272 232.125 339 300.787 371 c 0
 367.052 402 424.382 418 475.382 418 c 0
 526.382 418 571.446 403 613.183 372 c 0
 631.039 359 630.016 364 637.312 342 c 0
 645.003 321 644.069 306 639.716 295 c 0
 632.2 276 611.221 271 596.221 271 c 0
 588.221 271 581.617 272 580.408 274 c 0
 558.651 310 506.895 346 450.895 346 c 0
 413.895 346 374.146 334 327.047 311 c 0
 276.156 286 249.869 260 235.626 224 c 2
 235.23 223 l 1
 233.107 205 224.151 195 236.678 166 c 0
 258.687 118 432.248 127 462.479 120 c 0
 541.961 101 554.869 30 535.087 -20 c 0
 508.578 -87 445.739 -170 381.266 -199 c 0
 331.165 -222 299.583 -226 265.583 -226 c 0xa0
 250.583 -226 235.979 -225 218.979 -225 c 2
 215.979 -225 l 2
 208.979 -225 196.77 -223 191.77 -223 c 0
 134.77 -223 60.7832 -180 40.9834 -134 c 1
 41.3789 -133 l 1
 34.3564 -128 37.709 -117 41.2705 -108 c 2
 44.4355 -100 l 2
 52.7432 -79 81.6787 -64 106.679 -64 c 0
 112.679 -64 117.283 -65 119.097 -68 c 0
 133.853 -104 194.84 -147 237.84 -147 c 0
 245.84 -147 269.07 -154 272.07 -154 c 0x60
EndSplineSet
EndChar

StartChar: t
Encoding: 116 116 66
Width: 636
GlyphClass: 2
Flags: W
HStem: -233 76<277.083 376.985> 291 75<218.622 355.134 464.995 644.508>
VStem: 355.134 80.792<241.857 291>
LayerCount: 2
Fore
SplineSet
493.774 -132 m 1
 478.235 -146 386.583 -226 312.209 -232 c 0
 302.813 -233 293.813 -233 284.813 -233 c 0
 242.813 -233 207.77 -223 200.035 -192 c 1
 185.214 -141 204.139 -78 225.439 -9 c 0
 226.627 -6 227.813 -3 229 0 c 0
 241.265 31 273.587 95 282.291 117 c 0
 309.403 183 337.562 239 349.43 269 c 0
 353.782 280 355.948 288 355.134 291 c 1
 190.134 291 l 1
 218.622 363 l 1
 390.808 366 l 1
 452.925 523 l 1
 525.134 521 l 1
 464.995 369 l 1
 672.204 367 l 1
 644.508 297 l 1
 435.926 293 l 1
 435.738 290 434.156 286 431.782 280 c 0
 421.892 255 395.525 201 356.083 119 c 1
 348.961 101 311.704 22 302.209 -2 c 0
 284.009 -48 270.018 -96 275.565 -130 c 0
 279.652 -150 297.883 -157 324.883 -157 c 2
 338.883 -157 l 1
 392.466 -153 473.369 -85 501.262 -60 c 2
 519.591 -44 l 1
 493.774 -132 l 1
EndSplineSet
EndChar

StartChar: u
Encoding: 117 117 67
Width: 682
GlyphClass: 2
Flags: W
HStem: -222 80<221.432 359.123>
LayerCount: 2
Fore
SplineSet
750.161 377 m 1
 674.82 179 602.857 -13 525.936 -215 c 1
 434.541 -216 l 1
 460.049 -149 l 1
 398.618 -188 320.165 -222 259.165 -222 c 0
 215.165 -222 175.706 -208 142.18 -179 c 0
 75.9395 -124 65.1953 -45 102.321 64 c 1
 141.887 164 181.43 269 220.995 369 c 1
 303.183 372 l 1
 280.839 313 198.73 108 183.112 66 c 1
 155.461 -14 163.306 -70 208.478 -110 c 0
 231.17 -131 257.818 -142 286.818 -142 c 0
 317.818 -142 353.17 -131 393.27 -108 c 0
 444.743 -79 496.778 -41 527.187 3 c 1
 542.244 36 568.17 99 593.49 163 c 0
 613.67 214 642.343 289 654.377 327 c 1
 660.708 343 666.434 360 672.765 376 c 1
 750.161 377 l 1
EndSplineSet
EndChar

StartChar: v
Encoding: 118 118 68
Width: 792
GlyphClass: 2
Flags: W
HStem: 383 20G<229.446 311.241>
LayerCount: 2
Fore
SplineSet
873.238 405 m 1
 366.849 -195 l 1
 278.849 -195 l 1
 229.446 403 l 1
 309.446 403 l 1
 355.478 -110 l 1
 792.238 405 l 1
 873.238 405 l 1
EndSplineSet
EndChar

StartChar: w
Encoding: 119 119 69
Width: 1064
GlyphClass: 2
Flags: W
HStem: -198 21G<213.662 301.348 635.661 723.407> 383 19G<711.446 730.446 1067.19 1151.05>
VStem: 213.662 76.751<-95 11.7217> 233.655 69<191.278 401> 635.661 76.3564<-96 2.4052> 653.091 71.1914<114.764 301>
LayerCount: 2
Fore
SplineSet
635.661 -198 m 1xc8
 653.091 301 l 1
 286.661 -198 l 1
 213.662 -198 l 1xe4
 233.655 401 l 1
 302.655 401 l 1xd0
 290.413 -95 l 1
 660.052 402 l 1
 665.052 402 l 2
 682.052 402 703.446 403 719.446 403 c 2
 730.446 403 l 1
 724.282 395 l 1xe4
 712.018 -96 l 1
 1082.05 402 l 1
 1151.05 402 l 1
 708.661 -198 l 1
 635.661 -198 l 1xc8
EndSplineSet
EndChar

StartChar: x
Encoding: 120 120 70
Width: 950
GlyphClass: 2
Flags: W
HStem: -200.551 21G<618.412 723> 382.25 20G<702.372 850.821>
LayerCount: 2
Fore
SplineSet
470.177 47.6963 m 1
 434.453 -29.9629 358.164 -154.385 192.177 -196.504 c 1
 99.1787 -196.504 l 1
 103.582 -198.379 376.177 -83.752 430.177 90.2295 c 1
 473.961 238.14 297.483 409.69 264.177 401.696 c 1
 360.177 401.696 l 1
 428.177 329.674 462.177 311.696 498.177 159.696 c 1
 547.678 263.974 656.567 348.732 748.177 402.25 c 1
 850.821 396 l 1
 848.169 398.301 583.064 276.003 530.177 91.6963 c 1
 539 -72.15 722.848 -202.781 723 -198.15 c 1
 661.823 -200.551 l 1
 575 -154.149 486.769 -35.3945 470.177 47.6963 c 1
EndSplineSet
EndChar

StartChar: y
Encoding: 121 121 71
Width: 805
GlyphClass: 2
Flags: W
HStem: 383 20G<229.446 311.241>
LayerCount: 2
Fore
SplineSet
52.1494 -586 m 1
 21.5449 -585 -9.66406 -583 -40.2686 -582 c 1
 279.057 -197 l 1
 229.446 403 l 1
 309.446 403 l 1
 355.478 -110 l 1
 792.238 405 l 1
 873.238 405 l 1
 366.453 -196 l 1
 52.1494 -586 l 1
EndSplineSet
EndChar

StartChar: z
Encoding: 122 122 72
Width: 710
GlyphClass: 2
Flags: W
HStem: -201 76<171.543 550.475> 325 73<245.261 600.586>
LayerCount: 2
Fore
SplineSet
600.586 325 m 1
 474.377 327 345.772 328 217.564 330 c 1
 245.261 400 l 1
 782.469 398 l 1
 577.626 224 372.365 54 171.543 -125 c 1
 582.356 -128 l 1
 550.475 -201 l 1
 -3.52637 -201 l 1
 197.713 -26 399.348 150 600.586 325 c 1
EndSplineSet
EndChar

StartChar: cent
Encoding: 162 162 73
Width: 618
GlyphClass: 2
Flags: HMW
LayerCount: 2
Fore
SplineSet
494.531 539 m 1
 473.308 539 l 1
 470.017 537.198 l 0
 385.641 491.027 330.562 423.006 293.368 329 c 0
 259.008 242.156 257.451 175.17 302.173 130.853 c 0
 303.118 129.917 l 1
 304.219 129.54 l 1
 304.553 129.373 306.678 128.127 311.586 123.68 c 0
 322.93 113.408 l 1
 494.531 539 l 1
769.313 491.905 m 0
 769.002 486.908 769.54 486.136 768.694 484 c 0
 762.234 467.673 735.265 455.178 709.332 443.997 c 1
 730.017 524.599 663.505 574 605.303 574 c 0
 586.303 574 l 1
 396.212 93.5449 l 1
 406.838 94.0098 l 0
 455.663 96.1426 532.96 128.99 567.708 169.443 c 1
 572.441 171.646 573.027 172 575.252 172 c 0
 589.987 172 598.314 144.355 590.261 124 c 0
 587.593 117.255 584.204 112.978 577.326 109 c 0
 575.643 108.026 l 1
 574.19 106.692 l 0
 536.034 71.6201 446.332 34.6123 385.526 26.9121 c 0
 376.498 25.7686 l 1
 290.488 -198.775 l 1
 209.888 -195.209 l 1
 298.032 37.3975 l 1
 291.768 39.5664 l 0
 271.623 46.5371 250.702 54.3232 234.746 68.3477 c 1
 170.906 126.157 169.156 212.197 213.786 325 c 0
 263.062 449.54 338.719 535.707 453.704 596.617 c 1
 476.587 608.18 499.296 618.062 518.189 624.753 c 0
 525.392 627.302 l 1
 592.137 796 l 1
 674.137 796 l 1
 612.396 639.95 l 1
 621.045 639.049 l 0
 687.012 632.182 776.257 603.345 769.313 491.905 c 0
EndSplineSet
EndChar

StartChar: brokenbar
Encoding: 166 166 74
Width: 255
GlyphClass: 2
Flags: HMW
LayerCount: 2
Fore
SplineSet
277.315 281.208 m 5
 82.1299 -227 l 5
 -9.7832 -227 l 5
 195.645 284.782 l 5
 277.315 281.208 l 5
236.448 402.81 m 1
 395.961 822.6 l 1
 488.961 822.6 l 1
 329.976 399.193 l 1
 236.448 402.81 l 1
EndSplineSet
EndChar

StartChar: copyright
Encoding: 169 169 75
Width: 978
GlyphClass: 2
Flags: HMW
LayerCount: 2
Fore
SplineSet
913.258 588.789 m 0
 1008.76 507.688 1024.74 388.573 960.417 226 c 0
 895.695 62.417 787.284 -54.6631 625.656 -135.75 c 0
 537.793 -179.478 460.627 -205 390.893 -205 c 0
 329.037 -205 275.139 -184.405 227.812 -143.794 c 0
 135.049 -63.8213 129.629 57.1943 191.272 213 c 0
 259.22 384.734 366.277 505.735 532.011 589.771 c 0
 612.516 630.409 682.684 651 746.568 651 c 0
 810.455 651 865.328 630.398 913.258 588.789 c 0
800.98 333.584 m 5
 800.848 333.531 l 2
 792.394 330.17 784.202 327.183 776.341 324.943 c 0
 767.81 322.514 759.668 321 752.003 321 c 0
 738.196 321 727.775 325.618 716.829 332.441 c 0
 696.16 346.492 694.37 367.419 705.282 395 c 0
 712.813 414.035 725.261 430.914 738.639 441.799 c 2
 744.6 446.649 l 1
 740.069 449.472 l 2
 722.087 460.682 703.755 467 681.769 467 c 0
 651.478 467 615.942 455.507 576.889 434.099 c 0
 494.5 389.016 440.795 323 404 230 c 0
 398.43 215.924 393.74 202.411 389.981 189.463 c 0
 370.794 123.372 375.887 72.0264 412.338 35.9033 c 0
 434.422 14.5244 459.842 3 489.187 3 c 0
 521.573 3 561.034 16.6084 604.038 40.8965 c 0
 607.955 42.9619 611.854 45 614.804 45 c 0
 634.028 45 640.073 12.8213 631.439 -9 c 0
 628.137 -17.3457 623.742 -24.1309 614.84 -28.8271 c 0
 552.429 -61.4902 498.493 -79 449.743 -79 c 0
 405.904 -79 368.658 -64.4209 336.006 -34.8545 c 0
 271.897 24.0869 269.364 112.13 314.417 226 c 0
 364.18 351.776 441.279 439.835 558.306 501.829 c 0
 615.447 531.451 664.641 547 709.42 547 c 0
 768.119 547 826.43 512.287 853.965 471.851 c 0
 859.242 464.099 863.39 456.138 866.191 448.17 c 2
 866.247 448.013 l 2
 866.27 447.947 866.293 447.882 866.314 447.817 c 0
 866.347 447.757 866.378 447.697 866.407 447.637 c 0
 871.409 437.895 868.621 428.716 864.382 418 c 2
 858.052 402 l 1
 847.052 402 l 1
 842.45 392.044 l 1
 852.067 390.69 l 0
 843.341 373.872 824.181 341.64 801.115 333.63 c 2
 800.98 333.584 l 5
806.61 563.997 m 0
 778.293 576.572 747.615 583 714.664 583 c 0
 660.625 583 599.278 566.68 531.348 533.251 c 0
 388.77 462.314 299.921 361.233 242.459 216 c 0
 190.188 83.8828 192.456 -18.1826 273.657 -85.2666 c 0
 315.073 -118.647 362.523 -135 414.587 -135 c 0
 472.776 -135 540.751 -114.593 615.1 -77.2354 c 0
 754.076 -7.3916 844.046 88.5771 898.813 227 c 0
 953.178 364.406 939.957 462.364 858.231 532.24 c 0
 849.092 539.606 839.636 546.191 829.866 551.982 c 0
 822.302 556.466 814.549 560.473 806.61 563.997 c 0
EndSplineSet
EndChar

StartChar: question
Encoding: 63 63 76
Width: 555
Flags: W
HStem: -194 109<183.163 238.779> 661 83<439.567 579.806>
LayerCount: 2
Fore
SplineSet
330.19 324 m 1
 344.434 360 368.304 390 416.238 405 c 1
 476.986 417 541.295 438 569.89 485 c 1
 587.012 503 593.364 514 596.926 523 c 0
 600.882 533 600.651 540 606.398 552 c 1
 615.829 591 609.511 618 579.82 639 c 0
 562.568 651 540.524 661 510.524 661 c 0
 444.274 661 395.198 622.927 347.707 573 c 0
 330.084 554.777 313.863 527.888 287.09 531 c 0
 273.882 533 264.025 546 275.499 575 c 0
 276.687 578 279.269 582 280.851 586 c 0
 283.412 595 305.511 618 314.072 627 c 0
 335.38 648 352.107 665 376.229 683 c 0
 433.241 726 463.406 734 510.571 742 c 0
 521.363 744 531.363 744 542.363 744 c 0
 582.363 744 623.615 732 651.911 710 c 0
 690.714 679.471 703.772 623.717 670.651 540 c 0
 648.099 483 608.734 429 580.052 402 c 1
 519.246 357 520.622 363 439.354 332 c 1
 425.19 324 407.564 330 397.673 305 c 0
 395.694 300 393.926 293 392.365 284 c 1
 276.373 6 l 1
 225.605 -1 l 1
 330.19 324 l 1
159.214 -141 m 0
 171.478 -110 201.369 -85 233.369 -85 c 0
 263.369 -85 275.082 -111 264.005 -139 c 0
 252.53 -168 219.244 -194 187.244 -194 c 0
 157.244 -194 148.136 -169 159.214 -141 c 0
EndSplineSet
EndChar

StartChar: at
Encoding: 64 64 77
Width: 964
Flags: W
HStem: -194 71<325.727 511.724> -5 85<449.285 577.409> 543 78<635.139 769.934> 712 76<668.511 856.06>
LayerCount: 2
Fore
SplineSet
361.222 41 m 0
 294.564 100 285.986 187 333.069 306 c 0
 380.547 426 457.573 512 571.916 571 c 0
 633.577 603 688.698 621 737.698 621 c 0
 781.698 621 818.763 606 851.29 577 c 0
 860.729 568 870.376 557 876.816 548 c 1
 888.687 578 l 1
 959.494 575 l 1
 739.452 34 l 1
 668.639 37 l 1
 689.466 77 l 1
 668.926 63 650.574 52 628.826 40 c 0
 572.352 11 523.022 -5 478.022 -5 c 0
 433.022 -5 394.352 11 361.222 41 c 0
435.104 114 m 0
 457.399 92 483.651 80 513.651 80 c 0
 543.651 80 578.005 91 617.709 113 c 0
 699.513 158 753.626 224 790.421 317 c 0
 824.446 403 825.163 468 782.178 511 c 0
 759.882 533 734.838 543 705.838 543 c 0
 673.838 543 634.694 530 591.199 506 c 0
 511.79 462 456.863 399 421.651 310 c 0
 386.835 222 391.907 159 435.104 114 c 0
909.963 652 m 0
 868.395 691 819.702 712 762.702 712 c 0
 705.702 712 642.185 693 569.756 654 c 0
 417.312 572 319.626 454 253.156 286 c 0
 192.226 132 191.539 14 272.68 -64 c 0
 314.247 -103 361.334 -123 416.334 -123 c 0
 476.334 -123 548.226 -98 628.24 -55 c 0
 775.891 25 876.6 138 940.299 299 c 0
 1003.21 458 992.316 572 909.963 652 c 0
975.681 717 m 0
 1078.89 624 1094.08 488 1020.49 302 c 0
 946.104 114 824.296 -22 645.499 -115 c 0
 548.322 -166 462.244 -194 386.244 -194 c 0
 318.244 -194 259.739 -170 208.939 -124 c 0
 108.339 -32 106.73 108 177.156 286 c 0
 255.099 483 374.094 622 557.473 719 c 1
 646.673 765 723.771 788 793.771 788 c 0
 863.771 788 923.275 764 975.681 717 c 0
EndSplineSet
EndChar

StartChar: two
Encoding: 50 50 78
Width: 884
VWidth: 0
Flags: W
HStem: -198 68<371.347 593.464> 344 69<347.747 434.641> 638 70<524.343 719.895>
VStem: 808.112 80.4961<410.265 569.357>
LayerCount: 2
Fore
SplineSet
487.867 490 m 0
 502.26 526.377 468.455 552 429.398 552 c 0
 423.398 552 418.003 551 411.608 550 c 0
 410.608 550 402.212 549 394.608 550 c 1
 382.255 539 372.694 530 362.947 518 c 0
 354.303 508.349 344.741 499.788 340.076 488 c 0
 327.559 456.359 350.469 413 386.403 413 c 0
 399.965 413 411.981 418.43 423.942 427 c 1
 463.834 452 481.537 474 487.867 490 c 0
32.9697 -177 m 0
 15.1396 -177 2.47461 -163.088 10.8184 -142 c 0
 14.7744 -132 23.7314 -122 34.1045 -116 c 0
 67.4131 -95 111.766 -84 131.723 -74 c 0
 133.116 -73 133.723 -74 135.116 -73 c 0
 327.978 5 561.896 116 703.803 275 c 0
 752.96 331 778.413 365 792.655 401 c 0
 806.107 435 808.954 470 808.112 526 c 0
 807.168 559 776.664 583 743.368 605 c 1
 705.676 626 663.424 638 617.424 638 c 0
 581.424 638 542.259 630 503.928 614 c 1
 556.203 597 587.398 552 563.265 491 c 0
 562.076 488 559.494 484 557.911 480 c 0
 540.669 444 507.217 410 456.556 378 c 1
 423.059 354 390.103 344 362.103 344 c 0
 283.831 344 239.373 412.923 269.076 488 c 0
 276.991 508 291.299 529 311.212 549 c 1
 326.333 567 338.687 578 355.225 592 c 1
 368.994 599 l 1
 370.181 602 l 1
 378.741 611 l 1
 450.056 663.489 551.097 708 644.12 708 c 0
 705.12 708 759.395 691 802.504 666 c 0
 837.589 646 887.138 612 888.608 550 c 1
 888.265 491 881.46 446 864.052 402 c 0
 845.457 355 814.256 309 760.727 247 c 1
 625.982 96 432.439 -9 260.369 -85 c 1
 279.974 -86 298.787 -89 317.204 -93 c 1
 440.356 -128 l 1
 452.962 -129 466.565 -130 479.565 -130 c 0
 564.565 -130 659.039 -101 730.548 -34 c 2
 743.296 -22 l 1
 790.053 -58 l 1
 775.908 -71 l 1
 676.113 -164 552.661 -198 450.661 -198 c 0
 435.661 -198 421.057 -197 406.453 -196 c 0
 349.035 -192 312.718 -165 279.301 -161 c 1
 275.301 -161 l 1
 254.278 -156 232.07 -154 208.07 -154 c 0
 156.07 -154 98.1123 -164 40.3662 -176 c 0
 37.9697 -177 34.9697 -177 32.9697 -177 c 0
EndSplineSet
EndChar

StartChar: three
Encoding: 51 51 79
Width: 695
VWidth: 0
Flags: W
HStem: -205 74<196.094 418.83> 227 68<377.711 571.345> 641 76<504.915 691.935>
LayerCount: 2
Fore
SplineSet
602.611 641 m 0
 509.964 641 395.518 602.85 361.947 518 c 0
 354.429 499 351.517 479 352.416 456 c 1
 347.251 448 342.48 441 338.503 436 c 0
 320.8 414 304.029 407 290.029 407 c 0
 278.029 407 268.008 412 263.986 417 c 1
 254.151 425 261.769 467 281.552 517 c 0
 285.112 526 288.673 535 293.233 544 c 1
 338.872 581 411.911 710 629.681 717 c 1
 820.286 716 822.564 560 827.564 560 c 1
 823.141 516.439 815.81 479.742 802.46 446 c 0
 778.325 385 737.543 335 674.99 278 c 0
 655.869 260 664.243 266 657.077 258 c 25
 672.086 210 l 17
 686.117 157 679.522 110 659.343 59 c 0
 645.496 24 626.252 -12 601.24 -55 c 1
 548.378 -133 480.927 -167 430.618 -188 c 1
 391.871 -200 351.893 -205 313.893 -205 c 0
 206.893 -205 115.739 -170 118.136 -169 c 1
 72.6084 -140 57.8525 -104 54.0078 -48 c 1
 54.5039 -24 58.6055 -1 66.9131 20 c 0
 79.1777 51 100.257 79 133.753 103 c 0
 150.104 114 163.083 119 174.083 119 c 0
 193.083 119 201.753 103 193.84 83 c 0
 189.485 72 180.738 60 165.387 49 c 0
 152.43 39 143.287 26 138.143 13 c 0
 119.548 -34 145.601 -92 183.247 -103 c 1
 216.126 -121 250.17 -131 293.17 -131 c 0
 323.17 -131 358.148 -126 400.499 -115 c 0
 454.039 -101 505.699 -69 531.944 -33 c 0
 553.813 -3 569.683 27 581.157 56 c 0
 612.413 135 603.921 202 546.648 219 c 1
 532.417 226 507.813 227 481.813 227 c 0
 458.813 227 432.417 226 408.417 226 c 0
 377.417 226 348.208 228 327.77 237 c 1
 322.065 243.082 316.891 255.003 321.243 266 c 0
 329.551 287 364.694 300 377.069 306 c 1
 390.486 302 421.716 295 466.716 295 c 0
 497.716 295 537.299 299 581.651 310 c 1
 651.751 333 704.743 381 729.272 443 c 0
 740.352 471 745.615 502 743.277 534 c 1
 729.037 589 738.851 586 692.281 625 c 1
 668.633 636 637.611 641 602.611 641 c 0
EndSplineSet
EndChar

StartChar: four
Encoding: 52 52 80
Width: 848
VWidth: 0
Flags: W
HStem: -220 21G<535.457 559.957> 226 67<299.321 684.417 790.926 882.528>
LayerCount: 2
Fore
SplineSet
546.957 -220 m 0
 523.957 -220 518.706 -208 515.057 -197 c 1
 684.417 226 l 1
 183.417 226 l 1
 176.813 227 172 230 166.791 232 c 1
 162.1 253 l 1
 165.869 260 169.243 266 174.221 271 c 2
 672.681 717 l 2
 683.637 727 700.406 734 714.406 734 c 0
 730.426 734 739.786 723.757 742.89 715 c 1
 745.746 702 l 1
 596.333 567 448.13 430 299.321 294 c 1
 710.926 293 l 1
 811.42 547 l 2
 817.355 562 838.478 580 864.478 580 c 0
 889.478 580 897.751 563 891.42 547 c 2
 790.926 293 l 1
 868.926 293 l 2
 887.926 293 897.386 279 889.869 260 c 0
 882.353 241 861.417 226 842.417 226 c 2
 764.417 226 l 1
 598.223 -189 l 2
 592.684 -203 572.957 -220 546.957 -220 c 0
EndSplineSet
EndChar

StartChar: five
Encoding: 53 53 81
Width: 818
VWidth: 0
Flags: W
HStem: -218 73<236.682 480.867> 260 70<333.96 569.869> 557 72<426.98 895.788>
LayerCount: 2
Fore
SplineSet
891.499 575 m 1
 809.355 562 728.376 557 648.376 557 c 0
 563.376 557 479.751 563 400.707 573 c 1
 290.321 294 l 1
 339.442 312 408.564 330 482.564 330 c 0
 569.564 330 664.069 306 743.813 227 c 0
 746.626 224 748.438 221 748.855 217 c 0
 755.612 181 756.348 150 751.896 116 c 0
 748.213 89 741.926 63 732.826 40 c 0
 671.896 -114 505.826 -190 486.849 -195 c 0
 422.519 -211 368.748 -218 321.748 -218 c 0
 120.748 -218 71.2051 -93 61.8652 -61 c 2
 58.0078 -48 l 1
 97.1309 -30 l 2
 98.5264 -29 100.922 -28 102.317 -27 c 2
 135.252 -12 l 1
 138.9 -23 l 1
 145.405 -47 187.631 -145 350.631 -145 c 0
 388.631 -145 433.608 -140 485.752 -127 c 1
 508.709 -117 617.68 -64 659.617 42 c 0
 674.257 79 681.061 124 672.238 175 c 1
 601.956 240 523.869 260 453.869 260 c 0
 345.869 260 255.481 211 235.525 201 c 0
 230.734 199 223.547 196 214.547 196 c 0
 194.547 196 184.877 212 192.791 232 c 2
 343.928 614 l 2
 351.842 634 375.172 650 395.172 650 c 2
 400.172 650 l 1
 489.029 637 581.864 629 676.864 629 c 0
 751.864 629 828.842 634 906.589 646 c 1
 921.777 649 l 1
 907.687 578 l 1
 891.499 575 l 1
EndSplineSet
EndChar

StartChar: six
Encoding: 54 54 82
Width: 752
VWidth: 0
Flags: W
HStem: -196 75<267.048 437.006> 265 74<396.832 579.41> 661 73<588.321 758.525>
VStem: 812.673 69.2656<525.99 602.791>
LayerCount: 2
Fore
SplineSet
878.003 551 m 0
 871.134 533.639 852.603 514 833.364 514 c 0
 821.364 514 812.529 522 812.673 535 c 1
 805.72 616 758.524 661 679.524 661 c 0
 653.524 661 624.942 657 592.984 647 c 1
 494.346 610 399.255 539 337.251 448 c 0
 304.863 399 280.499 345 258.343 289 c 0
 250.825 270 243.912 250 236.396 231 c 0
 233.23 223 233.043 220 231.459 216 c 1
 242.417 226 249.791 232 260.353 241 c 0
 346.256 309 436.125 339 514.125 339 c 0
 581.125 339 640.421 317 679.2 276 c 1
 727.979 235 728.557 148 694.135 61 c 0
 660.115 -24.9854 603.455 -91.6367 528.774 -132 c 1
 459.553 -173 384.453 -196 319.453 -196 c 0
 266.453 -196 220.388 -181 186.443 -148 c 0
 118.557 -82 119.452 34 148.951 149 c 0
 155.634 176 163.525 201 173.604 229 c 0
 182.704 252 190.803 275 199.904 298 c 0
 222.059 354 247.611 411 286.954 470 c 0
 361.872 581 474.086 670 593.89 715 c 1
 635.033 728 673.406 734 706.406 734 c 0
 813.406 734 875.689 669 881.938 566 c 0
 881.959 561 879.981 556 878.003 551 c 0
206.083 119 m 1
 190.661 32 199.591 -44 248.974 -86 c 1
 273.874 -109 308.126 -121 349.126 -121 c 0
 400.126 -121 458.853 -104 515.514 -72 c 1
 516.908 -71 l 1
 566.081 -44.7305 606.128 -2.20703 631.135 61 c 0
 656.852 126 652.986 187 620.482 211 c 0
 618.877 212 620.273 213 618.67 214 c 0
 586.727 247 539.847 265 486.847 265 c 0
 424.847 265 354.353 241 288.568 191 c 1
 255.887 164 230.182 142 206.083 119 c 1
EndSplineSet
EndChar

StartChar: seven
Encoding: 55 55 83
Width: 792
VWidth: 0
Flags: W
HStem: -215 21G<286.936 293.936> 626 73<386.676 858.072>
LayerCount: 2
Fore
SplineSet
294.586 555 m 1
 339.086 670 l 2
 347.395 691 370.56 699 382.56 699 c 2
 931.955 700 l 2
 944.958 700 961.788 692 953.878 672 c 0
 951.896 667 949.923 662 947.343 658 c 2
 323.893 -205 l 1
 315.101 -207 l 2
 309.31 -209 299.936 -215 287.936 -215 c 0
 285.936 -215 283.33 -214 281.33 -214 c 0
 266.519 -211 264.662 -198 262.805 -185 c 1
 858.072 627 l 1
 386.676 626 l 1
 360.981 556 l 1
 294.586 555 l 1
EndSplineSet
EndChar

StartChar: eight
Encoding: 56 56 84
Width: 700
VWidth: 0
Flags: W
HStem: -197 73<228.734 406.283> 671 72<502.58 657.915>
VStem: 683.807 75.1211<518.099 643.68>
LayerCount: 2
Fore
SplineSet
536.521 340 m 1
 522.354 332 l 1
 532.377 327 l 1
 600.716 295 668.021 225 649.248 127 c 1
 655.918 111 644.277 74 633.595 47 c 2
 627.661 32 l 1
 560.752 -127 406.057 -197 290.057 -197 c 2
 280.057 -197 l 1
 155.64 -193 43.0605 -106 109.135 61 c 2
 112.3 69 l 2
 114.278 74 117.257 79 120.84 83 c 1
 122.213 89 124.587 95 126.961 101 c 0
 157.03 177 266.638 267 396.795 323 c 1
 409.168 329 l 1
 401.938 336 l 1
 346.49 393 296.581 464 331.794 553 c 0
 344.851 586 370.094 622 411.524 661 c 0
 426.063 675 442.207 688 460.746 702 c 0
 473.702 712 493.076 718 508.056 723 c 0
 550.594 737 586.968 743 617.968 743 c 0
 711.968 743 757.812 687 758.928 614 c 0
 759.643 588 754.168 559 743.09 531 c 0
 724.89 485 691.086 440 642.425 408 c 0
 611.117 387 575.016 364 536.521 340 c 1
484.984 647 m 1
 454.679 622.033 414.075 584.038 401.003 551 c 0
 378.056 493 417.669 444 483.161 377 c 1
 533.425 408 583.69 439 620.581 464 c 0
 644.911 480 663.199 506 673.882 533 c 0
 682.19 554 685.895 576 683.807 596 c 0
 679.029 637 652.481 671 591.481 671 c 0
 563.481 671 528.712 664 484.984 647 c 1
574.443 82 m 0
 599.799 184 525.956 240 448.76 285 c 1
 288.855 217 202.479 120 179.53 62 c 0
 134.031 -53 209.939 -124 317.939 -124 c 2
 322.939 -124 l 1
 416.731 -122 517.699 -69 560.826 40 c 0
 566.365 54 570.508 67 574.443 82 c 0
EndSplineSet
EndChar

StartChar: nine
Encoding: 57 57 85
Width: 752
VWidth: 0
Flags: W
HStem: -196 73<206.153 371.807> 199 74<385.504 568.027> 659 75<527.853 699.775>
VStem: 82.9219 68.2646<-64.791 12.2448>
LayerCount: 2
Fore
SplineSet
85.8574 -13 m 0
 92.6494 4.16699 112.466 24 131.496 24 c 0
 143.496 24 151.33 16 151.187 3 c 1
 158.139 -78 206.334 -123 285.334 -123 c 0
 311.334 -123 340.313 -118 372.27 -108 c 1
 470.908 -71 565.605 -1 627.608 90 c 0
 659.995 139 683.36 193 705.518 249 c 2
 728.464 307 l 2
 731.629 315 732.212 319 733.795 323 c 1
 722.839 313 715.069 306 704.508 297 c 0
 618.604 229 528.734 199 450.734 199 c 0
 383.734 199 324.835 222 286.055 263 c 1
 237.277 304 236.304 390 270.725 477 c 0
 304.745 562.986 361.405 629.637 436.086 670 c 1
 505.308 711 580.406 734 645.406 734 c 0
 698.406 734 744.473 719 778.417 686 c 0
 846.303 620 845.803 505 816.304 390 c 0
 809.622 363 801.333 337 791.256 309 c 1
 764.353 241 l 2
 742.195 185 717.644 128 678.3 69 c 0
 603.383 -42 491.17 -131 371.366 -176 c 1
 330.223 -189 291.453 -196 258.453 -196 c 0
 151.453 -196 89.1699 -131 82.9219 -28 c 0
 82.9004 -23 83.8789 -18 85.8574 -13 c 0
759.173 420 m 1
 774.594 507 765.664 583 716.281 625 c 1
 691.381 648 656.733 659 615.733 659 c 0
 564.733 659 506.007 642 449.346 610 c 1
 447.95 609 l 1
 398.288 582.469 359.039 540.981 333.725 477 c 0
 308.008 412 311.873 351 344.377 327 c 0
 345.982 326 344.586 325 346.19 324 c 0
 378.134 291 425.012 273 478.012 273 c 0
 540.012 273 610.508 297 676.29 347 c 1
 708.973 374 735.073 397 759.173 420 c 1
EndSplineSet
EndChar

StartChar: bar
Encoding: 124 124 86
Width: 387
Flags: W
HStem: -202 21G<69.8711 144.992>
LayerCount: 2
Fore
SplineSet
69.8711 -200 m 1
 471.103 804 l 1
 533.914 801 l 1
 137.079 -202 l 1
 69.8711 -200 l 1
EndSplineSet
EndChar

StartChar: parenleft
Encoding: 40 40 87
Width: 538
Flags: W
HStem: -200 56<308.148 399.292> 734 47<660.454 760.951>
LayerCount: 2
Fore
SplineSet
399.97 -177 m 0
 393.558 -193.208 360.561 -200 349.871 -200 c 2
 348.871 -200 l 2
 292.871 -200 243.783 -180 200.4 -138 c 0
 111.426 -52 115.874 121 183.529 292 c 1
 264.702 482 406.051 632 544.076 718 c 1
 618.902 758 683.003 781 738.003 781 c 2
 745.003 781 l 1
 765.606 780 768.44 772 763.693 760 c 0
 762.902 758 762.11 756 761.319 754 c 8
 753.385 739 751.133 751 720.406 734 c 1
 658.494 714 633.351 701 573.504 666 c 0
 443.642 588 330.48 441 270.738 290 c 0
 215.348 150 196.791 2 259.515 -72 c 1
 275.688 -112 333.026 -144 379.026 -144 c 1
 395.631 -145 405.113 -164 399.97 -177 c 0
EndSplineSet
EndChar

StartChar: parenright
Encoding: 41 41 88
Width: 538
Flags: W
HStem: -200 56<6.15285 132.585> 761 20G<400.305 445.503>
LayerCount: 2
Fore
SplineSet
29.8711 -200 m 2
 19.2129 -200 -8.43457 -193.187 -2.03027 -177 c 0
 3.1123 -164 27.6309 -145 45.0264 -144 c 1
 91.0264 -144 173.688 -112 221.515 -72 c 1
 342.791 2 442.348 150 497.738 290 c 0
 557.48 441 559.643 588 491.504 666 c 0
 459.351 701 444.494 714 398.406 734 c 1
 381.133 751 369.385 739 373.319 754 c 16
 374.11 756 374.902 758 375.693 760 c 0
 380.44 772 389.606 780 411.003 781 c 1
 418.003 781 l 2
 473.003 781 518.902 758 562.076 718 c 1
 632.051 632 655.702 482 586.529 292 c 1
 518.874 121 385.426 -52 228.4 -138 c 0
 151.783 -180 86.8711 -200 30.8711 -200 c 2
 29.8711 -200 l 2
EndSplineSet
EndChar

StartChar: asterisk
Encoding: 42 42 89
Width: 473
Flags: W
HStem: 597 48<370.195 433.203 538.381 599.39> 604 44<538.381 599.39>
LayerCount: 2
Fore
SplineSet
334.277 534 m 1x40
 433.203 597 l 1
 351.203 597 l 9
 323.906 619 l 25
 370.195 645 l 1x80
 454.798 644 l 1
 404.89 715 l 9
 414.298 759 l 25
 452.737 750 l 1
 483.481 671 l 1
 514.09 761 l 9
 549.355 792 l 25
 562.09 761 l 1
 520.689 669 l 1
 615.925 753 l 9
 657.11 756 l 25
 636.076 718 l 1
 538.381 648 l 1
 618.381 648 l 9
 642.864 629 l 25
 599.39 600 l 1
 518.972 604 l 1
 565.673 535 l 9
 556.033 498 l 25
 518.221 501 l 1
 483.542 565 l 1
 450.746 472 l 9
 421.46 446 l 25
 402.746 472 l 1
 446.333 567 l 1
 355.429 499 l 9
 310.265 491 l 25
 334.277 534 l 1x40
EndSplineSet
EndChar

StartChar: quotesingle
Encoding: 39 39 90
Width: 270
Flags: W
HStem: 520 264
VStem: 284.738 232.45
LayerCount: 2
Fore
SplineSet
517.188 784 m 5
 337.485 532 l 5
 284.738 520 l 5
 415.232 774 l 5
 517.188 784 l 5
EndSplineSet
EndChar

StartChar: quotedbl
Encoding: 34 34 91
Width: 410
Flags: W
HStem: 520 268 764 20G<549.232 622.006>
LayerCount: 2
Fore
SplineSet
636.188 784 m 1x40
 457.485 532 l 1
 418.738 520 l 1x80
 549.232 774 l 1
 636.188 784 l 1x40
506.771 788 m 1
 327.068 536 l 1
 289.738 520 l 1
 420.232 774 l 1
 506.771 788 l 1
EndSplineSet
EndChar

StartChar: numbersign
Encoding: 35 35 92
Width: 951
Flags: W
HStem: -199 21G<421.266 517.076> 72 72<158.974 279.485 404.974 582.884 708.369 828.884> 461 72<342.299 508.207 634.09 812.999 937.882 1031.4> 758 20G<686.935 779.419>
LayerCount: 2
Fore
SplineSet
812.999 460 m 1
 738.999 460 665.604 459 591.604 459 c 1
 404.974 144 l 1
 625.369 145 l 1
 812.999 460 l 1
895.395 461 m 1
 708.369 145 l 1
 858.369 145 l 1
 828.884 73 l 1
 665.884 73 l 1
 505.266 -199 l 1
 421.266 -199 l 1
 582.884 73 l 1
 362.485 72 l 1
 210.409 -186 l 1
 126.409 -186 l 1
 279.485 72 l 1
 130.485 72 l 1
 158.974 144 l 1
 321.974 144 l 1
 508.207 458 l 1
 312.812 457 l 1
 342.299 529 l 1
 552.09 531 l 1
 698.815 778 l 1
 779.419 777 l 1
 634.09 531 l 1
 855.485 532 l 1
 993.671 765 l 1
 1074.28 764 l 1
 937.882 533 l 1
 1059.88 533 l 1
 1031.4 461 l 1
 895.395 461 l 1
EndSplineSet
EndChar

StartChar: dollar
Encoding: 36 36 93
Width: 833
Flags: W
HStem: -202 21G<299.871 374.992> -142 73<419.699 539.287> -139 77<278.363 324.005> 245 73<576.097 690.491> 679 76<745.716 800.738>
LayerCount: 2
Fore
SplineSet
299.871 -200 m 1xd8
 324.005 -139 l 1
 252.4 -138 158.534 -77 131.67 -16 c 0
 131.461 -14 128.857 -13 127.648 -11 c 0
 123.605 -1 124.661 32 130.2 46 c 0
 144.049 81 184.378 97 207.17 99 c 1
 207.587 95 l 2
 208.234 84 190.991 48 195.43 39 c 1
 194.056 33 l 1
 214.087 -20 283.613 -49 354.47 -62 c 1xb8
 478.912 250 l 1
 389.869 260 312.343 289 283.578 373 c 1
 287.568 421 296.79 462 311.033 498 c 0
 351.39 600 426.942 657 494.395 691 c 0
 562.846 725 624.154 746 679.925 753 c 1
 701.103 804 l 1
 763.914 801 l 1
 745.716 755 l 1
 802.133 751 851.823 730 898.395 691 c 0
 922.481 671 926.733 659 937.468 628 c 0
 939.094 622 939.906 619 937.928 614 c 0
 930.807 596 903.794 553 878.794 553 c 0
 873.794 553 872.19 554 869.586 555 c 1
 868.981 556 l 1
 863.402 643 788.669 674 715.646 679 c 1
 574.795 323 l 1
 602.607 320 628.212 319 646.817 318 c 1
 694.817 318 l 2
 798.817 318 807.69 209 783.951 149 c 1
 781.392 140 778.83 131 775.269 122 c 0
 736.1 23 651.931 -76 573.061 -106 c 1
 508.797 -137 468.818 -142 424.818 -142 c 2
 390.818 -142 l 1
 367.079 -202 l 1
 299.871 -200 l 1xd8
512.354 332 m 1
 649.063 675 l 1
 610.294 668 567.568 651 521.676 626 c 0
 450.642 588 404.838 543 381.89 485 c 2
 380.702 482 l 1
 379.79 462 356.13 430 381.908 389 c 1
 407.642 358 459.312 342 512.354 332 c 1
543.935 245 m 1
 419.699 -69 l 1
 428.699 -69 436.306 -70 444.306 -70 c 0
 452.306 -70 460.699 -69 467.699 -69 c 0xd8
 490.699 -69 514.68 -64 559.174 -40 c 0
 560.57 -39 561.966 -38 563.361 -37 c 0
 618.461 -14 669.595 47 692.543 105 c 0
 697.291 117 700.038 129 702.786 141 c 1
 718.217 180 698.935 245 647.935 245 c 2
 543.935 245 l 1
EndSplineSet
EndChar

StartChar: percent
Encoding: 37 37 94
Width: 620
Flags: W
HStem: -205 72<349.861 433.343> 148 68<458.916 529.715> 319 72<306.18 389.815> 672 68<415.175 486.035>
LayerCount: 2
Fore
SplineSet
497.557 148 m 0
 483.557 148 465.392 140 446.248 127 c 0
 405.774 98 377.552 57 355 0 c 0
 334.426 -52 333.369 -85 349.688 -112 c 0
 358.543 -125 374.379 -133 388.379 -133 c 0
 403.379 -133 421.939 -124 442.874 -109 c 0
 481.557 -82 501.822 -51 523.583 4 c 0
 544.947 58 546.774 98 529.852 126 c 0
 520.995 139 511.557 148 497.557 148 c 0
593.791 2 m 1
 554.743 -79 514.543 -125 456.739 -170 c 1
 420.035 -192 388.893 -205 362.893 -205 c 0
 339.893 -205 317.266 -199 300.574 -178 c 0
 266.4 -138 258.369 -85 290.022 -5 c 0
 324.84 83 372.578 143 442.195 185 c 0
 476.107 205 504.459 216 528.459 216 c 0
 552.459 216 571.503 206 589.195 185 c 0
 623.974 144 626.631 85 593.791 2 c 1
452.877 672 m 0
 438.877 672 421.712 664 402.568 651 c 0
 362.094 622 333.872 581 311.32 524 c 0
 290.746 472 289.69 439 306.008 412 c 0
 314.863 399 329.698 391 343.698 391 c 0
 358.698 391 378.655 401 399.59 416 c 0
 438.272 443 457.142 473 478.903 528 c 0
 500.268 582 503.094 622 486.172 650 c 0
 477.315 663 466.877 672 452.877 672 c 0
549.112 526 m 1
 510.063 445 470.863 399 413.059 354 c 1
 376.354 332 345.212 319 319.212 319 c 0
 296.212 319 273.586 325 256.895 346 c 0
 222.721 386 214.69 439 246.342 519 c 0
 281.16 607 328.898 667 398.516 709 c 0
 432.429 729 460.78 740 484.78 740 c 0
 508.78 740 527.823 730 545.516 709 c 0
 580.294 668 581.95 609 549.112 526 c 1
841.955 700 m 1
 71.2217 -189 l 1
 1.53027 -168 l 1
 769.264 721 l 1
 841.955 700 l 1
EndSplineSet
EndChar

StartChar: yen
Encoding: 165 165 95
Width: 872
Flags: W
HStem: -198 21G<257.662 346.574> 32 74<222.939 347.661 457.939 595.661> 164 74<267.164 398.887 510.164 639.887> 760 20G<385.606 477.029 895.793 973.146>
LayerCount: 2
Fore
SplineSet
480.887 164 m 1
 457.939 106 l 1
 624.939 106 l 1
 595.661 32 l 1
 429.661 32 l 1
 338.661 -198 l 1
 257.662 -198 l 1
 347.661 32 l 1
 193.661 32 l 1
 222.939 106 l 1
 375.939 106 l 1
 398.887 164 l 1
 237.887 164 l 1
 267.164 238 l 1
 427.164 238 l 1
 453.277 304 l 1
 385.606 780 l 1
 473.606 780 l 1
 536.403 413 l 1
 895.793 783 l 1
 992.188 784 l 1
 537.069 306 l 1
 510.164 238 l 1
 669.164 238 l 1
 639.887 164 l 1
 480.887 164 l 1
EndSplineSet
EndChar

StartChar: braceleft
Encoding: 123 123 96
Width: 450
VWidth: 0
Flags: W
HStem: -197 21G<235.26 286.47> 713 72<608.188 649.099>
LayerCount: 2
Fore
SplineSet
285.359 -64.251 m 0
 270.34 -102.208 275.551 -118.719 313.543 -125 c 1
 276.057 -197 l 1
 194.463 -183.386 200.744 -118.284 226.499 -53.1865 c 0
 248.941 3.53516 289.512 68.7305 309.069 118.162 c 0
 325.496 159.678 330.495 193.394 312.855 217 c 0
 302.396 231 285.287 256 285.287 256 c 1
 200.508 297 l 1
 312.772 328 l 2
 313.772 328 353.83 361 375.37 375 c 0
 399.189 390.978 416.329 423.23 432.056 462.979 c 0
 447.803 502.78 462.135 550.097 480.344 596.12 c 0
 515.651 685.361 565.538 769.735 668.584 785 c 1
 649.099 713 l 1
 601.268 701.549 576.576 663.461 556.879 613.676 c 0
 541.128 573.861 528.567 526.564 509.917 479.427 c 0
 486.722 420.802 454.106 362.426 394.212 319 c 0
 379.256 309 363.486 302 348.112 296 c 1
 359.738 290 368.76 285 375.803 275 c 0
 407.491 232.805 397.278 175.101 375.005 118.804 c 0
 348.831 52.6533 308.606 -5.49414 285.359 -64.251 c 0
EndSplineSet
EndChar

StartChar: braceright
Encoding: 125 125 97
Width: 450
VWidth: 0
Flags: W
HStem: -197 72<37.5439 82.2037>
LayerCount: 2
Fore
SplineSet
113.799 -64.251 m 0
 137.046 -5.49414 142.831 52.6533 169.005 118.804 c 0
 191.278 175.101 226.727 232.805 291.803 275 c 0
 306.76 285 319.738 290 336.112 296 c 1
 325.486 302 315.256 309 308.212 319 c 0
 282.68 362.426 296.259 420.802 319.452 479.427 c 0
 338.104 526.564 362.97 573.861 378.722 613.676 c 0
 398.419 663.461 403.867 701.549 365.099 713 c 1
 402.584 785 l 1
 493.553 769.735 476.675 685.361 441.366 596.12 c 0
 423.155 550.097 400.047 502.78 384.3 462.979 c 0
 368.573 423.23 360.189 390.978 371.37 375 c 0
 381.83 361 395.772 328 396.772 328 c 2
 484.508 297 l 1
 367.287 256 l 1
 367.287 256 330.396 231 308.855 217 c 0
 272.537 193.394 250.857 159.678 234.433 118.162 c 0
 214.875 68.7305 203.855 3.53516 181.413 -53.1865 c 0
 155.657 -118.284 110.425 -183.386 18.0566 -197 c 1
 37.5439 -125 l 1
 80.5088 -118.719 98.7822 -102.208 113.799 -64.251 c 0
EndSplineSet
EndChar

StartChar: plusminus
Encoding: 177 177 98
Width: 565
Flags: W
HStem: -174 76<31.6855 199.476 275.476 427.28> 96 74<146.511 275.232 378.511 519.232>
LayerCount: 2
Fore
SplineSet
303.511 170 m 1
 371.727 350 l 1
 447.727 350 l 1
 378.511 170 l 1
 548.511 170 l 1
 519.232 96 l 1
 350.232 96 l 1
 275.476 -98 l 1
 456.059 -94 l 5
 427.28 -168 l 5
 2.90625 -174 l 1
 31.6855 -100 l 1
 199.476 -98 l 1
 275.232 96 l 1
 117.232 96 l 1
 146.511 170 l 1
 303.511 170 l 1
EndSplineSet
EndChar

StartChar: uni0000
Encoding: 0 0 100
Width: 555
Flags: W
HStem: -194 109<183.163 238.779> 661 83<439.567 579.806>
LayerCount: 2
Fore
SplineSet
330.19 324 m 1
 344.434 360 368.304 390 416.238 405 c 1
 476.986 417 541.295 438 569.89 485 c 1
 587.012 503 593.364 514 596.926 523 c 0
 600.882 533 600.651 540 606.398 552 c 1
 615.829 591 609.511 618 579.82 639 c 0
 562.568 651 540.524 661 510.524 661 c 0
 444.274 661 395.198 622.927 347.707 573 c 0
 330.084 554.777 313.863 527.888 287.09 531 c 0
 273.882 533 264.025 546 275.499 575 c 0
 276.687 578 279.269 582 280.851 586 c 0
 283.412 595 305.511 618 314.072 627 c 0
 335.38 648 352.107 665 376.229 683 c 0
 433.241 726 463.406 734 510.571 742 c 0
 521.363 744 531.363 744 542.363 744 c 0
 582.363 744 623.615 732 651.911 710 c 0
 690.714 679.471 703.772 623.717 670.651 540 c 0
 648.099 483 608.734 429 580.052 402 c 1
 519.246 357 520.622 363 439.354 332 c 1
 425.19 324 407.564 330 397.673 305 c 0
 395.694 300 393.926 293 392.365 284 c 1
 276.373 6 l 1
 225.605 -1 l 1
 330.19 324 l 1
159.214 -141 m 0
 171.478 -110 201.369 -85 233.369 -85 c 0
 263.369 -85 275.082 -111 264.005 -139 c 0
 252.53 -168 219.244 -194 187.244 -194 c 0
 157.244 -194 148.136 -169 159.214 -141 c 0
EndSplineSet
EndChar

StartChar: asciitilde
Encoding: 126 126 101
Width: 772
VWidth: 0
Flags: W
HStem: 222.43 65.1904<562.229 703.396> 332.78 58.7422<321.405 440.186>
LayerCount: 2
Fore
SplineSet
629.842 287.62 m 0
 710.992 287.62 790.576 361.184 807.139 382 c 1
 813.139 382 l 2
 814.04 382.079 814.923 382.118 815.784 382.118 c 0
 836.109 382.118 844.749 360.698 840.093 348.932 c 0
 826.872 315.517 719.286 222.43 606.396 222.43 c 0
 561.199 222.43 531.797 233.418 499.66 262 c 0
 448.002 307.911 418.896 332.78 383.043 332.78 c 0
 343.928 332.78 296.78 303.177 203.562 239 c 1
 191 230 l 1
 179.365 284 l 1
 187.343 289 l 1
 289.029 359.211 352.588 391.522 406.715 391.522 c 0
 455.119 391.522 495.979 365.682 549.817 318 c 0
 553.629 315 558.442 312 562.256 309 c 0
 583.866 293.708 606.893 287.62 629.842 287.62 c 0
EndSplineSet
EndChar

StartChar: ampersand
Encoding: 38 38 102
Width: 774
VWidth: 0
Flags: W
HStem: -212.984 65.5205<201.372 332.508> 721.293 66.9814<580.714 731.01>
VStem: 332.012 72.4951<503 580.629>
LayerCount: 2
Fore
SplineSet
773.237 635 m 1
 767.468 628 763.511 618 764.741 611 c 1
 767.346 610 773.346 610 776.346 610 c 1
 776.906 619 775.072 627 773.237 635 c 1
236.088 -212.984 m 0
 129.035 -212.984 27.7822 -107.351 87.166 42.7422 c 0
 121.892 130.511 211.868 226.431 371.629 315 c 1
 350.973 374 335.713 434 331.615 502 c 1
 332.012 503 l 1
 332.106 522.318 336.39 541.635 343.858 560.515 c 0
 370.031 626.663 435.305 687.436 496.45 724 c 1
 556.586 763.783 628.29 788.274 689.906 788.274 c 0
 735.158 788.274 774.968 775.064 800.759 745 c 0
 811.406 734 821.264 721 829.725 707 c 0
 833.834 700.2 837.079 695.854 839.207 688 c 1
 836.02 685 l 1
 838.02 685 840.417 686 842.438 681 c 0
 848.921 662 851.611 641 846.72 616 c 0
 845.737 613.517 845.74 610.513 844.449 607.25 c 0
 828.973 568.132 784.311 543.52 744.55 543.52 c 0
 720.94 543.52 700.337 552.74 694.499 575 c 0
 690.599 589.396 692.25 607.938 699.739 626.866 c 0
 707.856 647.383 722.831 668.356 745.02 685 c 1
 742.207 688 740.999 690 738.185 693 c 0
 721.833 712.386 694.408 721.293 662.446 721.293 c 0
 618.366 721.293 562.501 703.974 519.271 673 c 1
 469.911 643.843 427.941 600.404 411.686 559.321 c 0
 407.312 548.269 404.8 537.387 404.507 527 c 0
 414.204 367 493.77 237 566.356 102 c 1
 647.855 217 701.982 326 705.354 332 c 2
 710.312 342 l 1
 775.333 337 l 1
 771.377 327 l 2
 770.19 324 701.426 178 598.222 41 c 1
 607.1 23 612.978 5 621.648 -11 c 0
 636.494 -35.5654 673.586 -77.8359 649.857 -137.81 c 0
 646.54 -146.194 642.034 -154.924 636.113 -164 c 2
 629.157 -174 l 1
 569.487 -158 l 1
 573.297 -152.773 577.789 -147.32 580.457 -140.576 c 0
 590.072 -116.273 574.028 -91.0537 553.448 -57 c 1
 553.24 -55 l 1
 548.8 -46 544.756 -36 541.526 -29 c 1
 460.126 -121 360.871 -200 254.123 -212 c 0
 248.084 -212.66 242.066 -212.984 236.088 -212.984 c 0
154.778 42.9824 m 0
 110.442 -69.0742 197.172 -147.464 263.223 -147.464 c 0
 266.135 -147.464 269.011 -147.31 271.84 -147 c 0
 351.4 -138 437.865 -61 512.265 31 c 1
 511.056 33 512.056 33 511.452 34 c 0
 472.126 109 426.009 182 391.66 262 c 1
 244.019 180.079 179.173 104.641 154.778 42.9824 c 0
EndSplineSet
EndChar

StartChar: uni00AD
Encoding: 173 173 103
Width: 653
Flags: W
HStem: 235 86<199.703 667.678>
LayerCount: 2
Fore
SplineSet
199.703 321 m 5
 701.703 321 l 5
 667.678 235 l 5
 165.678 235 l 5
 199.703 321 l 5
EndSplineSet
EndChar

StartChar: acute
Encoding: 180 180 104
Width: 372
Flags: W
HStem: 547.051 220.288
VStem: 287.462 306.814
LayerCount: 2
Fore
SplineSet
594.276 728.487 m 1
 330.176 547.051 l 1
 287.462 559.872 l 1
 519.125 767.339 l 1
 594.276 728.487 l 1
EndSplineSet
EndChar

StartChar: universal
Encoding: 8704 8704 106
Width: 782
Flags: W
HStem: -203 21G<261.684 354.858> 361 86<412.855 638.83>
LayerCount: 2
Fore
SplineSet
926.75 793 m 1
 997.752 793 l 1
 341.684 -203 l 1
 261.684 -203 l 1
 390.541 795 l 1
 461.541 795 l 1
 412.855 447 l 1
 692.46 446 l 1
 926.75 793 l 1
334.291 -113 m 1
 638.83 361 l 1
 403.83 361 l 1
 334.291 -113 l 1
EndSplineSet
EndChar

StartChar: existential
Encoding: 8707 8707 107
Width: 606
Flags: W
HStem: -192.101 65.5205<28.773 400.328> 215.3 65.5205<181.881 534.583> 579.02 65.5205<333.867 676.47>
LayerCount: 2
Fore
SplineSet
31.6787 -126.58 m 5
 400.328 -126.58 l 5
 534.583 215.3 l 5
 156.844 215.3 l 5
 165.484 237.14 176.134 261.5 184.787 280.82 c 5
 559.497 280.82 l 5
 561.824 286.7 l 6
 599.38 381.62 636.589 478.22 674.144 573.14 c 6
 676.47 579.02 l 5
 308.828 579.02 l 5
 317.47 600.859 328.118 625.22 336.773 644.54 c 5
 463.023 644.54 589.273 644.54 715.523 644.54 c 5
 727.312 643.7 l 6
 750.207 642.859 768.388 642.859 786.235 642.02 c 5
 453.863 -192.94 l 5
 375.084 -192.94 l 5
 375.417 -192.101 l 5
 3.73633 -192.101 l 5
 12.377 -170.26 23.0254 -145.9 31.6787 -126.58 c 5
EndSplineSet
EndChar

StartChar: partialdiff
Encoding: 8706 8706 108
Width: 752
VWidth: 0
Flags: W
HStem: 658.174 72.9902<505.97 675.002>
LayerCount: 2
Fore
SplineSet
289.745 534.036 m 4
 291.425 539.028 293.104 544.02 296.825 549.129 c 4
 379.426 654.731 491.154 724.827 600.474 731.164 c 4
 634.189 733.118 668.955 729.26 701.371 718.415 c 5
 790.474 679.534 839.263 595.25 833.667 486.28 c 4
 830.204 428.331 814.134 371.609 795.331 315.707 c 4
 787.609 292.748 778.865 269.729 771.143 246.769 c 4
 760.722 218.759 750.284 193.685 737.133 166.495 c 4
 682.176 50.75 597.255 -67.7119 479.059 -139.162 c 4
 419.961 -174.887 361.798 -192.94 307.649 -196.079 c 4
 241.241 -199.928 181.531 -180.877 141.148 -143.086 c 5
 94.7168 -106.271 86.1484 -41.5303 115.017 44.3047 c 4
 144.226 131.152 209.193 220.071 289.369 264.849 c 5
 359.326 309.034 436.187 335.021 504.638 338.989 c 4
 584.328 343.607 653.947 318.279 691.395 253.893 c 4
 695.525 245.322 698.619 239.629 702.414 230.062 c 5
 703.756 234.055 705.786 237.108 708.471 245.095 c 4
 714.851 264.061 722.587 284.086 728.966 303.052 c 4
 747.768 358.954 762.833 412.682 766.002 460.825 c 4
 769.99 550.126 725.376 617.033 651.978 648.995 c 5
 626.727 657.319 600.485 659.713 573.922 658.174 c 4
 493.21 653.496 411.694 604.726 344.651 521.559 c 5
 335.18 508.285 320.232 499.589 307.974 498.878 c 4
 288.317 497.739 283.917 516.705 289.745 534.036 c 4
656.565 132.462 m 5
 648.96 154.533 638.979 175.488 625.567 201.138 c 5
 595.357 248.326 541.094 268.672 477.749 265 c 4
 423.601 261.862 362.387 240.696 305.332 205.09 c 4
 302.954 203.973 303.64 203.033 301.26 201.916 c 4
 250.292 175.472 201.205 112.92 179.383 48.0352 c 4
 158.162 -15.0605 167.608 -56.1348 198.407 -80.0625 c 5
 199.095 -81.001 l 5
 233.306 -110.34 280.724 -124.23 332.829 -121.21 c 4
 374.717 -118.782 418.591 -104.494 461.051 -79.5205 c 5
 542.583 -33.6865 607.943 44.4893 656.565 132.462 c 5
EndSplineSet
EndChar

StartChar: uni2204
Encoding: 8708 8708 109
Width: 606
Flags: W
HStem: -192.101 65.5205<28.773 94.6074 217.182 400.328> 215.3 65.5205<181.881 336.516 457.987 534.583> 579.02 65.5205<333.867 552.485 672.973 676.47>
LayerCount: 2
Fore
SplineSet
217.182 -126.58 m 1
 400.328 -126.58 l 1
 534.583 215.3 l 1
 419.26 215.3 l 1
 217.182 -126.58 l 1
457.987 280.82 m 1
 559.497 280.82 l 1
 561.824 286.7 l 2
 599.38 381.62 636.589 478.22 674.144 573.14 c 2
 676.47 579.02 l 1
 634.244 579.02 l 1
 457.987 280.82 l 1
672.973 644.54 m 1
 715.523 644.54 l 1
 727.312 643.7 l 2
 750.207 642.859 768.388 642.859 786.235 642.02 c 1
 453.863 -192.94 l 1
 375.084 -192.94 l 1
 375.417 -192.101 l 1
 178.455 -192.101 l 1
 107.9 -307.089 l 5
 23.9004 -307.089 l 5
 94.6074 -192.101 l 1
 3.73633 -192.101 l 1
 12.377 -170.26 23.0254 -145.9 31.6787 -126.58 c 1
 133.513 -126.58 l 1
 336.516 215.3 l 1
 156.844 215.3 l 1
 165.484 237.14 176.134 261.5 184.787 280.82 c 1
 375.42 280.82 l 1
 552.485 579.02 l 1
 308.828 579.02 l 1
 317.47 600.859 328.118 625.22 336.773 644.54 c 1
 591.39 644.54 l 1
 659.872 756.911 l 1
 740.08 754.911 l 1
 672.973 644.54 l 1
EndSplineSet
EndChar

StartChar: logicalnot
Encoding: 172 172 110
Width: 653
Flags: W
HStem: 235 86<199.703 583.129>
LayerCount: 2
Fore
SplineSet
615.703 321 m 1
 701.703 321 l 1
 611.934 84 l 1
 525.934 84 l 1
 583.129 235 l 1
 165.678 235 l 1
 199.703 321 l 1
 615.703 321 l 1
EndSplineSet
EndChar

StartChar: macron
Encoding: 175 175 111
Width: 653
Flags: W
HStem: 691.9 86<382.476 850.45>
LayerCount: 2
Fore
SplineSet
382.476 777.9 m 5
 884.476 777.9 l 5
 850.45 691.9 l 5
 348.45 691.9 l 5
 382.476 777.9 l 5
EndSplineSet
EndChar

StartChar: circle
Encoding: 9675 9675 112
Width: 964
Flags: W
HStem: -194 71<325.727 511.724> 712 76<668.511 856.06>
LayerCount: 2
Fore
SplineSet
909.963 652 m 0
 868.395 691 819.702 712 762.702 712 c 0
 705.702 712 642.185 693 569.756 654 c 0
 417.312 572 319.626 454 253.156 286 c 0
 192.226 132 191.539 14 272.68 -64 c 0
 314.247 -103 361.334 -123 416.334 -123 c 0
 476.334 -123 548.226 -98 628.24 -55 c 0
 775.891 25 876.6 138 940.299 299 c 0
 1003.21 458 992.316 572 909.963 652 c 0
975.681 717 m 0
 1078.89 624 1094.08 488 1020.49 302 c 0
 946.104 114 824.296 -22 645.499 -115 c 0
 548.322 -166 462.244 -194 386.244 -194 c 0
 318.244 -194 259.739 -170 208.939 -124 c 0
 108.339 -32 106.73 108 177.156 286 c 0
 255.099 483 374.094 622 557.473 719 c 1
 646.673 765 723.771 788 793.771 788 c 0
 863.771 788 923.275 764 975.681 717 c 0
EndSplineSet
EndChar

StartChar: uni20DD
Encoding: 8413 8413 113
Width: 964
Flags: W
HStem: -194 71<325.727 511.724> 712 76<668.511 856.06>
LayerCount: 2
Fore
SplineSet
909.963 652 m 0
 868.395 691 819.702 712 762.702 712 c 0
 705.702 712 642.185 693 569.756 654 c 0
 417.312 572 319.626 454 253.156 286 c 0
 192.226 132 191.539 14 272.68 -64 c 0
 314.247 -103 361.334 -123 416.334 -123 c 0
 476.334 -123 548.226 -98 628.24 -55 c 0
 775.891 25 876.6 138 940.299 299 c 0
 1003.21 458 992.316 572 909.963 652 c 0
975.681 717 m 0
 1078.89 624 1094.08 488 1020.49 302 c 0
 946.104 114 824.296 -22 645.499 -115 c 0
 548.322 -166 462.244 -194 386.244 -194 c 0
 318.244 -194 259.739 -170 208.939 -124 c 0
 108.339 -32 106.73 108 177.156 286 c 0
 255.099 483 374.094 622 557.473 719 c 1
 646.673 765 723.771 788 793.771 788 c 0
 863.771 788 923.275 764 975.681 717 c 0
EndSplineSet
EndChar

StartChar: registered
Encoding: 174 174 114
Width: 949
Flags: W
HStem: -166.478 64.6094<326.987 513.513> 478.53 63.6982<642.806 782.015> 657.982 69.1592<637.551 825.267>
VStem: 752.919 115.67<290.519 344.745>
LayerCount: 2
Fore
SplineSet
752.919 319.28 m 0
 763.719 346.58 788.871 369.33 818.351 376.609 c 1
 814.832 415.74 828.133 415.74 793.234 447.59 c 0
 771.703 467.609 747.525 478.53 719.025 478.53 c 0
 690.525 478.53 655.805 467.609 619.384 447.59 c 0
 570.942 421.2 522.111 386.62 491.889 343.85 c 1
 471.758 300.17 425.342 190.06 393.657 109.979 c 0
 380.337 76.3096 370.485 49.0098 365.315 33.54 c 0
 359.795 19.5869 354.274 5.63281 348.753 -8.32031 c 1
 285.103 -8.32031 l 1
 501.848 539.5 l 1
 578.798 539.5 l 1
 552.515 473.07 l 1
 567.876 483.08 586.086 493.09 602.986 502.189 c 0
 654.276 528.58 699.578 542.229 740.427 542.229 c 0
 781.277 542.229 815.776 528.58 846.775 501.28 c 1
 881.346 475.8 902.913 436.67 873.198 344.76 c 1
 876.999 344.76 869.668 323.83 868.589 321.1 c 0
 856.347 290.16 821.205 263.77 786.054 263.77 c 0
 749.955 263.77 741.758 291.07 752.919 319.28 c 0
875.719 351.13 m 1
 875.719 351.13 l 1
874.253 603.382 m 0
 834.144 638.872 787.557 657.982 733.406 657.982 c 0
 679.256 657.982 619.217 640.692 551.023 605.202 c 0
 407.499 530.582 316.564 423.202 256.079 270.322 c 0
 200.632 130.182 201.847 22.8018 280.164 -48.1777 c 0
 320.272 -83.668 365.321 -101.868 417.571 -101.868 c 0
 474.571 -101.868 542.472 -79.1182 617.804 -39.9883 c 0
 756.808 32.8115 850.691 135.642 908.659 282.152 c 0
 965.906 426.842 953.75 530.582 874.253 603.382 c 0
935.656 662.532 m 0
 1035.17 577.902 1051.76 454.142 984.786 284.882 c 0
 917.101 113.802 803.536 -9.95801 635.151 -94.5879 c 0
 543.639 -140.998 462.308 -166.478 390.109 -166.478 c 0
 325.508 -166.478 269.549 -144.638 220.561 -102.778 c 0
 123.534 -19.0576 119.79 108.342 183.878 270.322 c 0
 254.806 449.592 365.653 576.082 538.326 664.352 c 1
 622.338 706.212 695.219 727.142 761.719 727.142 c 0
 828.219 727.142 885.127 705.302 935.656 662.532 c 0
EndSplineSet
EndChar

StartChar: uni00B9
Encoding: 185 185 115
Width: 269
Flags: W
HStem: 467.103 281.99
VStem: 313.827 197.455
LayerCount: 2
Fore
SplineSet
444.334 749.093 m 1
 448.046 749.093 456.267 748.763 458.124 748.763 c 0
 472.043 748.763 468.592 749.422 501.073 749.422 c 2
 511.282 749.422 l 1
 403.294 467.103 l 1
 341.732 465.602 l 1
 434.021 698.861 l 1
 395.326 678.461 362.099 663.213 335.156 649.064 c 1
 324.851 644.129 l 1
 313.827 665.517 l 1
 444.334 749.093 l 1
EndSplineSet
EndChar

StartChar: questiondown
Encoding: 191 191 116
Width: 555
Flags: W
HStem: -219 83<157.91 298.149> 610 109<498.936 554.554>
LayerCount: 2
Fore
SplineSet
407.525 201 m 5
 393.282 165 369.413 135 321.479 120 c 5
 260.73 108 196.422 87 167.826 40 c 5
 150.704 22 144.352 11 140.791 2 c 4
 136.835 -8 137.065 -15 131.317 -27 c 5
 121.888 -66 128.204 -93 157.896 -114 c 4
 175.148 -126 197.191 -136 227.191 -136 c 4
 293.441 -136 342.519 -97.9268 390.009 -48 c 4
 407.631 -29.7773 423.854 -2.8877 450.627 -6 c 4
 463.835 -8 473.691 -21 462.218 -50 c 4
 461.031 -53 458.448 -57 456.865 -61 c 4
 454.306 -70 432.204 -93 423.644 -102 c 4
 402.334 -123 385.608 -140 361.487 -158 c 4
 304.475 -201 274.31 -209 227.145 -217 c 4
 216.352 -219 206.352 -219 195.352 -219 c 4
 155.352 -219 114.101 -207 85.8047 -185 c 4
 47.002 -154.471 33.9424 -98.7168 67.0654 -15 c 4
 89.6172 42 128.982 96 157.666 123 c 5
 218.47 168 217.096 162 298.36 193 c 5
 312.525 201 330.151 195 340.043 220 c 4
 342.021 225 343.791 232 345.353 241 c 5
 461.342 519 l 5
 512.112 526 l 5
 407.525 201 l 5
578.504 666 m 4
 566.237 635 536.346 610 504.346 610 c 4
 474.346 610 462.633 636 473.712 664 c 4
 485.185 693 518.473 719 550.473 719 c 4
 580.473 719 589.582 694 578.504 666 c 4
EndSplineSet
EndChar

StartChar: dieresis
Encoding: 168 168 117
Width: 636
Flags: W
HStem: 602 134<378.803 446.631 714.699 780.87>
LayerCount: 2
Fore
SplineSet
778.78 740 m 0
 815.78 740 839.494 714 822.877 672 c 0
 807.051 632 762.763 606 727.763 606 c 0
 690.763 606 670.237 635 686.063 675 c 0
 701.89 715 743.78 740 778.78 740 c 0
438.198 736 m 0
 475.198 736 499.911 710 483.294 668 c 0
 467.468 628 422.181 602 387.181 602 c 0
 350.181 602 328.654 631 344.481 671 c 0
 360.308 711 403.198 736 438.198 736 c 0
EndSplineSet
EndChar

StartChar: guillemotleft
Encoding: 171 171 118
Width: 780
Flags: W
LayerCount: 2
Fore
SplineSet
495.223 128.2 m 1
 708.601 -4.7998 l 1
 648.093 -71.7998 l 1
 561.062 -18.7998 475.428 35.2002 388.396 88.2002 c 1
 375.957 97.2002 l 1
 373.243 123.2 l 1
 408.674 162.2 l 1
 539.436 217.2 670.8 271.2 801.562 326.2 c 1
 809.052 259.2 l 1
 495.223 128.2 l 1
239.748 127 m 1
 453.127 -6 l 1
 392.616 -73 l 1
 305.587 -20 219.952 34 132.922 87 c 1
 120.482 96 l 1
 117.769 122 l 1
 153.199 161 l 1
 283.959 216 415.325 270 546.086 325 c 1
 553.577 258 l 1
 239.748 127 l 1
EndSplineSet
EndChar

StartChar: guillemotright
Encoding: 187 187 119
Width: 780
Flags: W
LayerCount: 2
Fore
SplineSet
386.223 128.2 m 1
 176.052 259.2 l 1
 236.562 326.2 l 1
 323.8 271.2 412.436 217.2 499.674 162.2 c 1
 504.243 123.2 l 1
 480.957 97.2002 l 1
 461.396 88.2002 l 1
 332.428 35.2002 204.062 -18.7998 75.0918 -71.7998 c 1
 67.6006 -4.7998 l 1
 386.223 128.2 l 1
640.748 127 m 1
 430.577 258 l 1
 491.086 325 l 1
 578.325 270 666.959 216 754.199 161 c 1
 758.769 122 l 1
 735.482 96 l 1
 715.922 87 l 1
 586.952 34 458.587 -20 329.616 -73 c 1
 322.127 -6 l 1
 640.748 127 l 1
EndSplineSet
EndChar

StartChar: uni00B2
Encoding: 178 178 120
Width: 449
VWidth: 153
Flags: W
HStem: 441.261 34.2236<398.431 514.558> 640.717 34.5918<389.495 433.501> 748.909 34.96<462.108 545.425>
VStem: 562.752 41.7744<643.457 733.632>
LayerCount: 2
Fore
SplineSet
398.431 475.487 m 5
 432.628 476.177 l 5
 432.703 476.171 l 6
 438.499 475.746 442.37 475.484 447.233 475.484 c 4
 448.337 475.484 449.442 475.497 450.549 475.521 c 4
 481.944 476.209 515.267 486.667 539.818 508.765 c 6
 548.71 516.804 l 5
 574.042 498.828 l 5
 564.033 489.998 l 6
 550.546 477.925 535.938 468.463 520.931 461.22 c 4
 516.991 459.318 513.023 457.569 509.042 455.966 c 4
 483.06 445.507 456.469 441.261 432.907 441.261 c 4
 426.806 441.261 420.979 441.639 415.233 442.007 c 4
 391.712 443.543 375.794 453.451 365.108 454.876 c 5
 363.288 454.876 l 5
 362.816 454.981 l 6
 354.896 456.74 346.533 457.453 337.395 457.453 c 4
 317.636 457.453 295.381 453.86 272.989 449.47 c 5
 272.989 449.47 269.156 448.989 268.975 448.989 c 4
 259.674 448.989 252.653 455.792 256.878 466.469 c 4
 258.925 471.641 263.401 476.537 269.037 479.641 c 4
 283.305 488.216 301.328 492.468 307.474 495.394 c 5
 313.936 471.468 516.303 611.605 525.868 621.946 c 4
 544.469 642.404 553.412 654.188 558.202 666.293 c 4
 562.729 677.732 563.607 690.051 562.752 710.521 c 4
 562.188 720.544 538.055 737.231 538.055 737.231 c 4
 523.494 744.747 507.517 748.909 490.342 748.909 c 4
 480.969 748.909 471.129 747.463 461.274 744.849 c 5
 476.988 736.252 485.506 720.339 477.227 699.413 c 4
 476.421 697.378 475.535 696.128 475.232 695.365 c 6
 475.158 695.174 l 5
 475.066 694.982 l 6
 467.851 680.091 453.566 666.689 433.498 654.405 c 5
 419.79 645.021 405.127 640.717 393.049 640.717 c 4
 359.727 640.717 340.093 667.878 352.135 698.309 c 4
 355.411 706.593 361.433 715.128 369.705 723.123 c 6
 369.705 723.123 385.531 738.16 387.088 739.423 c 6
 387.849 740.04 l 5
 391.505 741.807 l 5
 395.974 746.331 l 5
 396.587 746.764 l 6
 425.21 766.9 465.756 783.869 503.781 783.869 c 4
 528.595 783.869 550.632 777.396 568.164 767.984 c 4
 582.228 760.561 603.259 747.658 604.526 722.851 c 4
 604.959 700.766 602.715 683.684 595.98 666.661 c 4
 588.771 648.439 576.409 630.821 555.673 607.623 c 4
 507.07 555.065 437.869 517.485 376.242 490.448 c 5
 379.744 489.886 381.44 489.562 384.162 489.012 c 6
 384.28 488.987 l 5
 398.431 475.487 l 5
437.881 699.045 m 4
 441.591 708.424 431.519 717.261 417.452 717.261 c 4
 415.666 717.261 413.947 716.974 411.328 716.588 c 6
 410.902 716.524 l 5
 410.623 716.524 l 6
 409.928 716.475 406.453 716.361 406.159 716.361 c 4
 401.969 712.664 400.184 710.933 397.369 707.58 c 6
 397.248 707.434 l 5
 397.114 707.291 l 6
 393.289 703.17 390.819 700.976 389.765 698.309 c 4
 386.276 689.492 394.604 675.309 405.557 675.309 c 4
 409.429 675.309 412.385 676.542 416.143 679.113 c 6
 416.357 679.261 l 5
 416.582 679.395 l 6
 431.108 688.073 436.268 694.97 437.881 699.045 c 4
EndSplineSet
EndChar

StartChar: uni00B3
Encoding: 179 179 121
Width: 369
VWidth: 0
Flags: W
HStem: 410.579 39.9111<302.642 439.527> 584.789 37.8896<389.616 482.197> 752.532 40.7188<411.254 528.74>
VStem: 247.613 70.1221<506.452 531.45> 340.097 42.6367<681.441 684.899 685.315 720.491>
LayerCount: 2
Fore
SplineSet
403.304 584.789 m 0
 389.201 584.789 352.014 582.597 361.257 605.957 c 0
 366.47 619.135 386.172 624.95 389.616 626.506 c 0
 391.693 627.444 l 1
 393.401 626.982 l 0
 399.051 625.453 412.602 622.679 431.967 622.679 c 0
 445.463 622.679 462.235 623.395 480.871 628.52 c 0
 509.288 636.335 529.573 654.637 538.62 677.5 c 0
 542.887 688.286 545.902 700.483 543.192 711.589 c 0
 537.409 735.3 542.932 732.387 520.625 746.61 c 0
 512.461 751.816 498.292 752.532 482.901 752.532 c 0
 441.964 752.532 397.046 736.901 385.537 707.815 c 0
 382.888 701.115 381.903 693.78 382.603 684.899 c 0
 382.733 683.226 l 1
 381.541 681.441 l 0
 373.442 669.323 361.666 657.949 348.46 657.949 c 0
 323.607 657.949 329.218 679.914 340.097 707.411 c 0
 341.535 711.047 343.046 714.894 345.131 718.929 c 0
 345.952 720.516 l 1
 347.502 721.699 l 0
 364.245 734.483 400.562 793.251 497.688 793.251 c 0
 575.226 793.251 586.704 740.686 589.629 729.792 c 1
 590.888 729.792 l 1
 590.629 726.32 l 0
 589.291 708.465 586.557 693.135 580.851 678.713 c 0
 570.552 652.683 552.062 631.199 524.907 607.816 c 1
 521.378 604.673 520.448 603.643 520.448 603.643 c 1
 526.984 586.312 l 1
 534.228 564.017 531.908 543.863 523.372 522.288 c 0
 517.67 507.88 510.451 492.519 498.72 474.903 c 0
 476.079 440.92 443.645 425.553 421.11 417.806 c 0
 402.984 411.573 384.839 410.579 367.894 410.579 c 0
 319.738 410.579 279.812 425.296 279.616 425.367 c 0
 279.349 425.464 l 1
 279.113 425.599 l 0
 257.88 437.74 249.547 453.201 247.613 476.884 c 0
 246.78 487.093 249.063 497.388 252.677 506.523 c 0
 258.981 522.455 281.932 551.54 305.477 551.54 c 0
 316.48 551.54 322.065 542.935 317.735 531.988 c 0
 312.35 518.378 297.087 511.011 294.193 503.694 c 0
 287.987 488.008 299.767 466.929 314.197 461.564 c 0
 330.031 455.677 343.659 450.49 361.635 450.49 c 0
 397.029 450.49 443.037 465.122 459.506 486.811 c 0
 468.252 498.329 474.494 509.854 478.934 521.075 c 0
 495.731 563.53 481.757 585.193 435.656 585.193 c 0
 425.641 585.193 414.009 584.789 403.304 584.789 c 0
EndSplineSet
EndChar

StartChar: exclamdown
Encoding: 161 161 122
Width: 280
Flags: W
HStem: 607 129<376.305 436.369>
LayerCount: 2
Fore
SplineSet
467.086 670 m 0
 454.029 637 419.16 607 383.16 607 c 0
 345.16 607 330.029 637 343.877 672 c 0
 356.933 705 395.198 736 431.198 736 c 0
 469.198 736 480.933 705 467.086 670 c 0
72.3662 -176 m 0
 57.3662 -176 43.7178 -165 28.6309 -145 c 1
 29.8184 -142 l 1
 163.756 194 200.683 257 291.352 471 c 1
 321.387 509 339.507 527 351.299 529 c 1
 364.903 528 365.199 506 365.142 473 c 1
 294.969 283 236.918 111 150.27 -108 c 2
 137.214 -141 l 1
 111.301 -161 89.3662 -176 72.3662 -176 c 0
EndSplineSet
EndChar

StartChar: section
Encoding: 167 167 124
Width: 621
Flags: W
HStem: -195 71<207.942 386.862> -194 78<193.563 290.128> 84 78<294.175 435.191> 655 72<482.473 645.473>
VStem: 173.906 74.4561<201.125 278.728>
LayerCount: 2
Fore
SplineSet
171.867 138.8 m 0xb8
 166.31 145.18 157.016 192 160.577 201 c 2
 163.741 209 l 2
 165.891 214.433 169.42 219.464 173.906 223.938 c 1
 174.184 228.464 173.12 232.954 175.115 238 c 0
 199.717 300.178 246.086 364.186 310.164 397.637 c 1
 283.71 418.145 250.378 450.72 276.207 516 c 0
 301.923 581 351.432 648 420.093 680 c 0
 486.357 711 543.688 727 594.688 727 c 0
 645.688 727 690.753 712 732.488 681 c 0
 750.345 668 749.323 673 756.619 651 c 0
 764.311 630 763.377 615 759.022 604 c 0
 751.506 585 730.527 580 715.527 580 c 0
 707.527 580 700.923 581 699.715 583 c 0
 677.959 619 626.201 655 570.201 655 c 0
 533.201 655 493.454 643 446.354 620 c 0
 395.463 595 369.176 569 354.932 533 c 2
 354.537 532 l 1
 352.415 514 343.459 504 355.984 475 c 0
 364.203 457.075 393.555 447.1 428.688 441.271 c 1
 451.465 446.402 473.045 449 493.596 449 c 0
 531.1 449 564.474 439.691 597.516 424.268 c 0
 613.184 416.955 626.016 408.354 637.01 399.052 c 0
 648.021 389.733 649.1 392.386 655.526 373 c 0
 663.525 351.166 665.538 317.169 654.394 289 c 0
 631.937 232.238 583.4 163.991 529.887 126.826 c 1
 564.685 96.4033 567.925 47.9629 553.301 11 c 0
 526.792 -56 463.954 -139 399.479 -168 c 0
 349.38 -191 317.797 -195 283.797 -195 c 0xb8
 268.797 -195 254.192 -194 237.192 -194 c 2
 234.192 -194 l 2
 227.192 -194 214.983 -192 209.983 -192 c 0
 152.983 -192 78.998 -149 59.1973 -103 c 1
 59.5928 -102 l 1
 52.5732 -97 55.9258 -86 59.4854 -77 c 2
 62.6514 -69 l 2
 70.959 -48 99.8926 -33 124.894 -33 c 0
 130.894 -33 135.497 -34 137.311 -37 c 0
 152.066 -73 213.054 -116 256.054 -116 c 0x78
 264.054 -116 287.283 -123 290.283 -123 c 0
 304.283 -123 312.889 -124 321.889 -124 c 0
 337.889 -124 351.889 -124 383.405 -105 c 0
 420.11 -83 462.476 -29 476.718 7 c 0
 484.631 27 466.897 58 438.853 68 c 0
 408.275 78.9971 380.21 84 338.285 84 c 2
 335.285 84 l 2
 328.285 84 316.077 86 311.077 86 c 0
 289.752 86 266.683 92.8809 243.699 101.959 c 0
 226.981 108.563 197.996 108.801 171.867 138.8 c 0xb8
435.973 154.382 m 0
 489.323 154.382 557.375 233.351 577.811 285 c 0
 585.724 305 567.989 336 539.946 346 c 0
 499.377 360.59 452.406 362.854 409.361 367.656 c 1
 389.384 361.789 368.194 353.198 345.261 342 c 0
 294.37 317 268.083 291 253.84 255 c 2
 253.444 254 l 1
 252.153 243.045 248.331 235.053 248.362 223.938 c 1
 271.637 192.7 320.812 162 357.146 162 c 0
 362.094 162 372.348 158.37 381.077 157.28 c 0
 400.061 154.909 419.329 154.382 435.973 154.382 c 0
EndSplineSet
EndChar

StartChar: paragraph
Encoding: 182 182 125
Width: 822
Flags: W
HStem: -199.784 20.8096G<440.756 520.53 605.472 680.321> 173 83<381.881 511.214> 727 73.8418<582.935 838.918> 741.1 55<876.228 962.612>
LayerCount: 2
Fore
SplineSet
684.251 800.842 m 0xe0
 727.251 800.842 989.181 796.1 989.181 796.1 c 1
 1051.99 793.1 l 1
 672.682 -199.975 l 1
 605.472 -197.975 l 1
 962.612 741.1 l 1xd0
 962.612 741.1 876.366 745.358 876.155 735.1 c 1
 512.756 -199.784 l 1
 440.756 -199.784 l 1
 536.833 42.9844 546.796 92.0107 611.086 256 c 1
 599.921 248 l 2
 581.778 235 577.008 228 559.052 218 c 0
 506.577 189 459.247 173 419.247 173 c 0
 374.247 173 335.369 191 302.03 223 c 0
 237.373 282 228.607 366 275.69 485 c 0
 322.377 603 398.007 688 508.351 747 c 0
 563.221 777 642.251 800.842 684.251 800.842 c 0xe0
361.516 295 m 0
 385.021 271 412.086 256 445.086 256 c 0
 475.086 256 508.834 268 547.538 290 c 0
 627.342 335 679.455 401 713.482 487 c 0
 750.672 581 749.182 648 701.382 694 c 0
 680.085 716 653.438 727 622.438 727 c 0xe0
 591.438 727 556.689 715 517.984 693 c 0
 437.182 648 380.464 583 345.251 494 c 0
 309.643 404 315.32 340 361.516 295 c 0
EndSplineSet
EndChar

StartChar: degree
Encoding: 176 176 126
Width: 338
Flags: W
HStem: 506.3 53.2002<354.317 437.496> 722.7 52<403.675 491.332>
LayerCount: 2
Fore
SplineSet
428.193 572.504 m 0
 457.271 588.22 475.562 609.025 488.568 641.9 c 0
 501.414 674.371 499.694 695.674 483.478 711.323 c 1
 475.421 719.274 466.517 722.7 456.537 722.7 c 0
 446.306 722.7 434.985 719.611 420.694 711.692 c 1
 390.949 695.72 372.84 673.929 359.059 639.1 c 0
 346.371 607.027 346.751 585.448 362.087 570.455 c 0
 370.064 562.583 378.666 559.5 388.366 559.5 c 0
 398.878 559.5 412.214 563.688 428.193 572.504 c 0
408.108 755.511 m 0
 432.735 767.938 455.188 774.7 475.51 774.7 c 0
 495.791 774.7 513.403 767.913 528.021 755.062 c 0
 556.822 729.571 560.532 691.349 540.809 641.5 c 0
 520.923 591.237 487.113 553.402 437.646 527.877 c 0
 411.364 514.455 387.015 506.3 364.517 506.3 c 0
 344.579 506.3 327.436 513.088 313.064 525.521 c 1
 284.55 550.942 284.48 590.12 303.226 637.5 c 0
 323.785 689.464 357.368 729.087 408.108 755.511 c 0
EndSplineSet
EndChar

StartChar: ordfeminine
Encoding: 170 170 127
Width: 315
VWidth: 457
Flags: W
HStem: 499.399 47.6006<342.207 426.207> 719 48.7998<398.734 479.153>
LayerCount: 2
Fore
SplineSet
430.816 523.486 m 1
 427.718 521.704 425.278 520.376 422.008 518.651 c 0
 398.526 506.374 377.377 499.399 358.087 499.399 c 0
 338.894 499.399 321.959 506.323 308.652 519.146 c 1
 280.778 544.583 277.506 582.854 297.188 632.6 c 0
 317.032 682.757 350.46 720.651 398.924 746.104 c 1
 423.925 759.514 447.62 767.8 468.681 767.8 c 0
 487.555 767.8 503.639 760.809 516.972 748.544 c 1
 517.68 747.929 519.089 746.593 519.089 746.593 c 1
 526.662 765.733 l 1
 570.486 764.277 l 1
 464.765 497.066 l 1
 420.94 498.522 l 1
 430.816 523.486 l 1
446.973 719 m 0
 437.075 719 423.863 714.651 407.908 705.352 c 1
 378.264 688.763 358.658 666.646 345.031 632.199 c 0
 331.562 598.156 333.478 575.064 349.448 558.664 c 0
 357.109 550.75 366.039 547 375.32 547 c 0
 384.887 547 396.366 550.364 410.395 558.338 c 1
 440.357 574.985 460.147 598.631 474.538 635 c 0
 487.752 668.402 487.899 691.545 472.062 707.315 c 1
 463.993 715.79 455.967 719 446.973 719 c 0
EndSplineSet
Substitution2: "'sups' Superscript lookup 0 subtable" ordfeminine.superior
EndChar

StartChar: uni00B5
Encoding: 181 181 128
Width: 682
Flags: W
HStem: -199.571 21G<489.401 581.549> -174.39 80<242.541 375.8>
LayerCount: 2
Fore
SplineSet
255.798 424.61 m 1
 332.401 423.61 l 1
 326.07 407.61 318.346 390.61 312.015 374.61 c 1
 293.979 336.61 263.305 261.61 243.128 210.61 c 0
 217.808 146.61 193.88 83.6104 182.824 50.6104 c 1
 178.416 6.61035 200.381 -31.3896 228.907 -60.3896 c 0
 250.808 -83.3896 277.454 -94.3896 308.454 -94.3896 c 0
 337.454 -94.3896 372.808 -83.3896 412.115 -62.3896 c 0
 488.941 -22.3896 541.098 33.6104 576.75 113.61 c 1
 594.367 155.61 674.475 360.61 698.819 419.61 c 1
 778.633 416.61 l 1
 739.068 316.61 695.523 211.61 655.959 111.61 c 0
 652.496 103.929 646.833 96.3252 645.208 89.0107 c 1
 618.271 -7.67871 535.161 -115.121 581.549 -197.779 c 1
 498.952 -199.571 l 1
 479.851 -170.521 471.558 -136.496 498.509 -86.2568 c 1
 475.704 -102.819 450.869 -117.833 423.816 -131.39 c 0
 367.344 -160.39 316.803 -174.39 272.803 -174.39 c 0
 211.803 -174.39 160.256 -140.39 129.686 -101.39 c 1
 -18.0664 -479.38 l 1
 -92.4834 -475.38 l 1
 -9.5625 -273.38 174.458 226.61 255.798 424.61 c 1
EndSplineSet
EndChar

StartChar: logicalor
Encoding: 8744 8744 129
Width: 764
Flags: W
HStem: -203 21G<275.883 369.756>
LayerCount: 2
Fore
SplineSet
866.317 635.2 m 1
 937.317 635.2 l 1
 355.883 -203 l 1
 275.883 -203 l 1
 330.107 637.2 l 1
 401.107 637.2 l 1
 348.491 -113 l 1
 866.317 635.2 l 1
EndSplineSet
EndChar

StartChar: logicaland
Encoding: 8743 8743 130
Width: 764
Flags: W
LayerCount: 2
Fore
SplineSet
535.475 -201 m 1
 606.475 -201 l 1
 688.309 637.2 l 1
 608.309 637.2 l 1
 -2.31738 -203 l 1
 68.6826 -203 l 1
 609.699 547.2 l 1
 535.475 -201 l 1
EndSplineSet
EndChar

StartChar: uni2206
Encoding: 8710 8710 131
Width: 945
Flags: W
HStem: -198.614 84.4551<138.183 716.91>
LayerCount: 2
Fore
SplineSet
715.556 642.124 m 5
 817.492 -196.055 l 1
 70.0498 -198.614 l 1
 -28.6426 -198.614 l 1
 715.556 642.124 l 5
716.91 -111.6 m 1
 643.551 461.841 l 1
 138.183 -114.159 l 1
 716.91 -111.6 l 1
EndSplineSet
EndChar

StartChar: gradient
Encoding: 8711 8711 132
Width: 945
Flags: W
LayerCount: 2
Fore
SplineSet
382.918 -198.614 m 5
 1148.11 639.564 l 1
 402.687 642.124 l 1
 303.995 642.124 l 1
 382.918 -198.614 l 5
980.694 555.109 m 1
 453.571 -18.3311 l 1
 403.991 557.669 l 1
 980.694 555.109 l 1
EndSplineSet
EndChar

StartChar: uni2201
Encoding: 8705 8705 133
Width: 752
Flags: W
HStem: -200 75<308.179 468.341> 704.343 76.6572<634.121 815.266>
LayerCount: 2
Fore
SplineSet
625.721 26.3428 m 1
 653.886 25.6357 687.689 30.5859 678.6 8.34277 c 1
 648.817 -41.6572 l 1
 649.971 -45.3145 643.025 -43.6572 641.631 -44.6572 c 1
 605.225 -130.399 432.623 -212.442 351.569 -200 c 1
 346.569 -200 l 2
 290.569 -200 240.48 -180 197.099 -138 c 0
 108.124 -52 106.768 76 174.426 247 c 0
 249.203 436 377.166 628 541.775 718 c 0
 619.393 760 685.7 781 742.7 781 c 1
 876.845 790.302 949.675 664.604 890.207 558.343 c 1
 876.251 548.343 845.811 557.343 832.251 548.343 c 1
 836.494 584.343 845.816 648.343 816.85 686.343 c 1
 782.987 706.229 754.42 705.812 719.972 704.343 c 1
 671.972 704.343 614.081 679.343 554.232 644.343 c 0
 424.372 566.343 325.542 404 265.8 253 c 0
 210.408 113 205.49 2 268.212 -72 c 1
 299.76 -106 339.243 -125 385.243 -125 c 2
 394.243 -125 l 1
 468.206 -131.499 585.958 -49.7461 619.349 20.3428 c 1
 625.721 26.3428 l 1
EndSplineSet
EndChar

StartChar: emptyset
Encoding: 8709 8709 134
Width: 910
Flags: W
HStem: -123.632 59.6396<384.976 508.732> 637.408 63.8398<613.568 739.954> 761.88 20G<817.221 909.559>
LayerCount: 2
Fore
SplineSet
891.118 641.608 m 0
 982.012 563.488 996.836 449.248 935.024 293.008 c 0
 872.543 135.088 768.186 20.8477 613.735 -57.2725 c 0
 529.795 -100.112 455.239 -123.632 389.12 -123.632 c 0
 380.832 -123.632 372.702 -123.236 364.723 -122.45 c 1
 323.619 -190.521 l 1
 239.619 -190.521 l 1
 292.674 -103.04 l 1
 271.965 -93.5146 252.454 -80.7393 234.034 -64.832 c 0
 145.42 12.4482 142.357 130.048 201.516 279.568 c 0
 266.987 445.048 368.863 561.808 527.251 643.288 c 1
 604.309 681.928 671.112 701.248 732.012 701.248 c 0
 747.914 701.248 763.212 699.874 777.958 697.14 c 1
 829.351 781.88 l 1
 909.559 779.88 l 1
 845.243 673.363 l 1
 861.194 664.747 876.455 654.153 891.118 641.608 c 0
806.176 608.66 m 1
 400.323 -63.4902 l 1
 404.97 -63.8242 409.68 -63.9922 414.456 -63.9922 c 0
 466.656 -63.9922 528.905 -42.9922 598.006 -6.87207 c 0
 725.513 60.3281 811.788 155.248 865.297 290.488 c 0
 918.139 424.048 907.306 519.808 834.715 587.008 c 0
 825.578 595.179 816.07 602.409 806.176 608.66 c 1
739.954 634.474 m 1
 728.979 636.419 717.629 637.408 705.885 637.408 c 0
 656.296 637.408 601.261 621.448 538.709 588.688 c 0
 407.056 519.808 323.47 420.688 267.637 279.568 c 0
 216.454 150.208 217.259 51.0879 288.774 -14.4316 c 0
 301.623 -25.9238 315.035 -35.4521 329.1 -42.9795 c 1
 739.954 634.474 l 1
EndSplineSet
EndChar

StartChar: element
Encoding: 8712 8712 135
Width: 684
Flags: W
HStem: -194.2 73<343.398 534.965> 256.39 74.0039<280.187 714.05> 703.796 72.0039<672.639 850.258>
LayerCount: 2
Fore
SplineSet
534.965 -194.2 m 1
 469.104 -203.003 275.337 -200.426 217.14 -124 c 1
 116.539 -32 114.931 108 185.356 286 c 0
 263.3 483 382.294 622 565.672 719 c 1
 654.872 765 801.745 775.8 871.745 775.8 c 1
 875.254 768.238 846.145 710.026 848.28 703.796 c 1
 790.015 703.55 649.562 692.556 577.955 654 c 0
 439.309 579.421 345.954 475.062 280.187 330.394 c 1
 434.567 331.242 588.947 332.091 743.327 332.939 c 1
 714.05 258.939 l 1
 250.23 256.39 l 1
 200.683 116.81 205.021 8.92383 280.878 -64 c 1
 341.151 -127.216 504.846 -126.375 555.847 -121.2 c 0
 565.041 -121.2 531.234 -194.2 534.965 -194.2 c 1
848.28 703.796 m 2
 848.517 703.099 849.146 703.052 850.258 703.8 c 2
 848.28 703.796 l 2
EndSplineSet
EndChar

StartChar: suchthat
Encoding: 8715 8715 136
Width: 684
Flags: W
HStem: -194.2 73<25.7492 234.568> 703.796 72.0039<421.216 563.159>
LayerCount: 2
Fore
SplineSet
-4.63477 -194.2 m 1
 54.2598 -203.003 250.065 -200.426 368.739 -124 c 1
 542.139 -32 654.53 108 724.956 286 c 0
 802.899 483 793.895 622 687.272 719 c 1
 634.473 765 496.146 775.8 426.146 775.8 c 1
 416.654 768.238 399.699 710.026 392.635 703.796 c 1
 450.703 703.551 582.458 692.557 623.555 654 c 0
 703.188 579.421 713.961 475.062 665.252 330.394 c 1
 511.544 331.242 357.836 332.091 204.128 332.939 c 1
 174.851 258.939 l 1
 636.65 256.39 l 1
 575.748 116.81 486.041 8.92383 352.479 -64 c 1
 242.182 -127.216 79.1543 -126.375 32.2471 -121.2 c 0
 23.0537 -121.2 -0.905273 -194.2 -4.63477 -194.2 c 1
392.635 703.796 m 2
 391.843 703.099 391.177 703.052 390.657 703.8 c 2
 392.635 703.796 l 2
EndSplineSet
EndChar

StartChar: uni220A
Encoding: 8714 8714 137
Width: 684
VWidth: 715
Flags: W
HStem: -0.902344 43.7998<413.587 611.443> 269.452 44.4014<273.644 718.813>
LayerCount: 2
Fore
SplineSet
611.443 -0.902344 m 1
 546.977 -6.18359 352.802 -4.6377 282.508 41.2178 c 1
 167.348 96.418 143.582 180.418 185.838 287.218 c 0
 232.604 405.418 329.6 488.818 497.627 547.018 c 1
 579.548 574.618 724.712 581.098 794.712 581.098 c 1
 799.415 576.561 779.521 541.634 782.642 537.896 c 1
 724.416 537.748 585.702 531.151 520.197 508.018 c 0
 393.355 463.271 316.516 400.656 273.644 313.854 c 1
 427.889 314.363 582.137 314.872 736.382 315.382 c 1
 718.813 270.981 l 1
 255.399 269.452 l 1
 227.942 185.704 249.352 120.972 336.751 77.2178 c 1
 407.028 39.2881 570.59 39.793 620.771 42.8975 c 0
 629.966 42.8975 607.714 -0.902344 611.443 -0.902344 c 1
782.642 537.896 m 2
 782.99 537.479 783.626 537.449 784.619 537.896 c 2
 782.642 537.896 l 2
EndSplineSet
EndChar

StartChar: uni220D
Encoding: 8717 8717 138
Width: 684
VWidth: 715
Flags: W
HStem: -0.902344 43.7998<89.8612 281.899> 537.896 43.2012<343.758 534.632>
LayerCount: 2
Fore
SplineSet
71.8438 -0.902344 m 1
 132.131 -6.18359 327.528 -4.6377 434.107 41.2178 c 1
 592.947 96.418 683.183 180.418 725.437 287.218 c 0
 772.203 405.418 741.201 488.818 619.228 547.018 c 1
 559.147 574.618 419.11 581.098 349.11 581.098 c 1
 340.815 576.561 333.074 541.634 326.997 537.896 c 1
 385.104 537.748 518.598 531.151 565.796 508.018 c 0
 657.233 463.271 684.524 400.656 658.709 313.854 c 1
 504.867 314.363 351.023 314.872 197.181 315.382 c 1
 179.614 270.981 l 1
 641.819 269.452 l 1
 603.006 185.704 530.373 120.972 408.352 77.2178 c 1
 308.059 39.2881 144.897 39.793 97.1729 42.8975 c 0
 87.9795 42.8975 75.5732 -0.902344 71.8438 -0.902344 c 1
326.997 537.896 m 2
 326.315 537.479 325.657 537.449 325.019 537.896 c 2
 326.997 537.896 l 2
EndSplineSet
EndChar

StartChar: notelement
Encoding: 8713 8713 139
Width: 684
Flags: W
HStem: -199.061 21G<142.842 238.635> -144.044 67.1602<361.607 574.219> 271.315 68.1436<279.721 421.433 544.624 738.95>
LayerCount: 2
Fore
SplineSet
848.28 703.796 m 2
 848.517 703.099 849.146 703.048 850.257 703.796 c 2
 848.28 703.796 l 2
574.219 -144.044 m 1
 516.991 -150.79 366.162 -150.271 279.79 -109.267 c 1
 226.842 -199.061 l 1
 142.842 -199.061 l 1
 221.289 -66.6074 l 1
 125.831 17.9775 120.836 142.061 182.43 297.74 c 0
 254.138 478.979 371.934 606.86 559.491 696.1 c 0
 597.4 713.673 646.065 725.662 695.277 733.675 c 1
 736.243 802.843 l 1
 816.453 800.843 l 1
 783.062 744.217 l 1
 820.074 747.253 853.459 748.355 877.945 748.355 c 1
 882.021 741.399 854.45 687.844 857.012 682.112 c 1
 830.521 682.015 787.949 680.062 742.246 674.998 c 1
 544.624 339.858 l 1
 618.378 340.213 692.132 340.568 765.886 340.924 c 1
 738.95 272.844 l 1
 660.781 272.467 582.611 272.091 504.443 271.714 c 1
 321.38 -38.7354 l 1
 397.608 -82.2451 543.96 -81.2119 592.391 -76.8838 c 0
 602.043 -76.8838 570.303 -144.044 574.219 -144.044 c 1
652.051 660.689 m 1
 623.113 654.359 596.466 646.347 575.73 636.3 c 0
 433.987 567.688 341.336 471.678 279.721 338.582 c 1
 340.411 338.875 401.102 339.167 461.794 339.459 c 1
 652.051 660.689 l 1
421.433 271.315 m 1
 364.979 271.043 308.526 270.771 252.072 270.499 c 1
 214.311 162.37 215.509 74.916 266.621 9.93066 c 1
 421.433 271.315 l 1
EndSplineSet
EndChar

StartChar: uni220C
Encoding: 8716 8716 140
Width: 684
Flags: W
HStem: -129.983 64.2402<51.2115 111.154> 267.954 65.0566<208.373 349.029 469.992 635.271> 663.02 63.3633<362.748 539.373>
LayerCount: 2
Fore
SplineSet
24.6396 -129.983 m 1
 28.2939 -129.983 48.8867 -65.7432 57.8965 -65.7432 c 0
 75.4355 -67.4727 109.366 -68.6523 150.495 -66.4014 c 1
 349.029 267.954 l 1
 182.606 268.779 l 1
 208.373 333.899 l 1
 268.134 333.603 327.896 333.307 387.657 333.011 c 1
 566.796 634.7 l 1
 499.774 654.957 383.029 662.847 337.803 663.02 c 1
 344.479 668.502 358.792 719.729 367.795 726.383 c 1
 418.854 726.383 529.763 719.585 605.223 699.416 c 1
 647.479 770.582 l 1
 727.688 768.582 l 1
 669.967 670.926 l 1
 775.197 585.693 788.508 464.129 720.64 292.593 c 0
 658.667 135.953 554.062 12.7529 387.771 -68.207 c 1
 334.84 -99.6328 264.766 -116.87 199.203 -125.526 c 1
 159.074 -193.418 l 1
 75.0742 -193.418 l 1
 111.154 -132.654 l 1
 73.6475 -133.831 42.6865 -132.391 24.6396 -129.983 c 1
337.803 663.02 m 2
 337.057 662.406 336.404 662.361 335.864 663.02 c 2
 337.803 663.02 l 2
240.065 -56.3945 m 1
 284.975 -48.5586 330.843 -35.7529 369.46 -15.4072 c 1
 497.467 48.7656 581.111 143.705 635.271 266.535 c 1
 431.538 267.545 l 1
 240.065 -56.3945 l 1
469.992 332.603 m 1
 533.453 332.288 596.915 331.974 660.375 331.659 c 1
 698.614 447.537 689.879 534.024 626.928 598.112 c 1
 469.992 332.603 l 1
EndSplineSet
EndChar

StartChar: minus
Encoding: 8722 8722 141
Width: 599
Flags: W
HStem: 170.6 74
LayerCount: 2
Fore
SplineSet
132.497 170.6 m 1
 601.497 170.6 l 1
 630.776 244.6 l 1
 161.776 244.6 l 1
 132.497 170.6 l 1
EndSplineSet
EndChar

StartChar: uni2213
Encoding: 8723 8723 142
Width: 565
Flags: W
LayerCount: 2
Fore
SplineSet
238.623 6 m 1
 164.407 -174 l 1
 240.407 -174 l 1
 313.623 6 l 1
 483.623 6 l 1
 512.901 80 l 1
 343.901 80 l 1
 422.658 274 l 1
 600.075 270 l 5
 629.853 344 l 5
 210.227 350 l 1
 180.45 276 l 1
 346.658 274 l 1
 268.901 80 l 1
 110.901 80 l 1
 81.623 6 l 1
 238.623 6 l 1
EndSplineSet
EndChar

StartChar: uni220E
Encoding: 8718 8718 143
Width: 746
VWidth: 0
Flags: W
LayerCount: 2
Fore
SplineSet
57.8086 -94 m 25
 269.416 456 l 25
 829.79 462 l 25
 622.974 -86 l 25
 57.8086 -94 l 25
EndSplineSet
EndChar

StartChar: union
Encoding: 8746 8746 144
Width: 862
Flags: W
HStem: -201.943 84<309.873 496.677>
LayerCount: 2
Fore
SplineSet
198.954 -158.844 m 1
 127.396 -76.8438 138.262 46.1562 192.356 208.156 c 1
 201.039 235.156 l 1
 267.301 405.156 329.029 559.156 394.896 728.156 c 1
 481.873 733.156 l 1
 438.56 621.156 305.801 290.156 281.479 226.156 c 1
 234.648 95.1562 226.01 3.05664 276.5 -63.9434 c 0
 301.444 -96.9434 334.135 -117.943 373.135 -117.943 c 0
 412.135 -117.943 477.531 -116.943 535.356 -76.9434 c 0
 606.349 -28.9434 665.865 45.1562 710.957 116.156 c 1
 712.54 120.156 l 1
 736.114 172.156 798.835 328.156 839.587 431.156 c 0
 872.03 513.156 923.372 635.225 952.827 697.156 c 2
 969.475 732.156 l 1
 1047.88 733.156 l 1
 978.468 550.156 901.825 376.156 824.279 180.156 c 0
 807.661 138.156 792.345 110.057 774.727 68.0566 c 1
 671.236 -94.9434 522.9 -201.943 389.9 -201.943 c 1
 349.483 -202.235 220.296 -202.979 198.954 -158.844 c 1
EndSplineSet
EndChar

StartChar: intersection
Encoding: 8745 8745 145
Width: 862
Flags: W
HStem: 649.1 84<595.862 783.97>
LayerCount: 2
Fore
SplineSet
534.799 690 m 1
 398.354 608 311.89 485 237.795 323 c 1
 225.112 296 l 1
 156.852 126 96.7207 -28 28.8574 -197 c 1
 111.879 -202 l 1
 157.191 -90 286.353 241 312.673 305 c 1
 369.503 436 433.742 528.1 537.25 595.1 c 0
 588.308 628.1 637.615 649.1 676.615 649.1 c 0
 715.615 649.1 780.221 648.1 806.395 608.1 c 0
 839.403 560.1 840.285 486 829.194 415 c 1
 827.611 411 l 1
 810.039 359 749.316 203 708.564 100 c 0
 676.121 18 630.872 -104.068 611.322 -166 c 2
 600.274 -201 l 1
 677.879 -202 l 1
 753.283 -19 814.325 155 891.873 351 c 0
 908.49 393 915.407 421.1 931.025 463.1 c 1
 956.514 626.1 892.85 733.1 759.85 733.1 c 1
 719.663 733.392 591.064 734.135 534.799 690 c 1
EndSplineSet
EndChar

StartChar: propersubset
Encoding: 8834 8834 146
Width: 1015
Flags: W
HStem: -62.6865 91.9082<552.269 896.483> -54.7783 88<363.855 706.961> 506.535 83.6865<736.873 1120.43>
LayerCount: 2
Fore
SplineSet
309.813 436.422 m 1x60
 432.961 540.422 570.916 578.222 736.873 588.222 c 1
 764.664 590.222 l 1
 935.059 591.222 979.656 588 1149.05 589 c 1
 1120.43 504 l 1
 1094.26 503.768 1056.29 503.688 1012.62 503.688 c 0
 912.346 503.688 891.077 506.535 804.51 506.535 c 0
 766.811 506.535 737.418 506.454 722.43 506.222 c 1
 589.452 501.222 486.352 473.422 388.888 396.422 c 0
 340.853 358.422 303.631 317.422 288.2 278.422 c 0
 272.771 239.422 248.052 174.422 271.436 132.422 c 0
 298.861 80.4219 361.014 50.2217 425.286 33.2217 c 1
 429.286 33.2217 l 1x60
 480.1 30.2217 635.705 29.2217 738.705 29.2217 c 0
 820.705 29.2217 845.99 30.9824 896.617 26.7998 c 2
 930.51 24 l 1
 896.483 -62 l 1
 866.776 -62.4834 837.413 -62.6865 808.235 -62.6865 c 0xa0
 656.51 -62.6865 618.855 -54.7783 454.471 -54.7783 c 0
 412.471 -54.7783 386.032 -50.5781 344.428 -49.5781 c 1
 196.857 -10.5781 131.797 95.4219 184.418 228.422 c 1
 185.84 232.082 187.546 236.474 189.521 241.462 c 0
 209.276 291.395 255.727 401.142 309.813 436.422 c 1x60
EndSplineSet
EndChar

StartChar: propersuperset
Encoding: 8835 8835 147
Width: 1015
Flags: W
HStem: -62.6865 89.4863<157.161 412.917> -54.7783 88<264.673 517.185 616 688.743> 506.535 83.6865<693.144 743.587>
LayerCount: 2
Fore
SplineSet
1050.53 436.422 m 1x60
 1009.68 540.422 901.63 578.222 743.587 588.222 c 1
 717.378 590.222 l 1
 547.773 591.222 500.629 588 332.024 589 c 1
 293.394 504 l 1
 319.37 503.768 357.274 503.688 400.944 503.688 c 0
 501.222 503.688 524.745 506.535 611.311 506.535 c 0
 649.01 506.535 678.339 506.454 693.144 506.222 c 1
 822.166 501.222 903.267 473.422 939.801 396.422 c 0
 957.767 358.422 962.544 317.422 947.114 278.422 c 0
 931.685 239.422 904.967 174.422 848.351 132.422 c 0
 779.776 80.4219 693.728 50.2217 616 33.2217 c 1
 612 33.2217 l 1x60
 558.814 30.2217 402.418 29.2217 299.418 29.2217 c 0
 217.418 29.2217 193.526 30.9824 139.59 26.7998 c 2
 103.482 24 l 1
 69.4551 -62 l 1
 98.7803 -62.4834 127.983 -62.6865 157.161 -62.6865 c 0xa0
 308.886 -62.6865 352.798 -54.7783 517.185 -54.7783 c 0
 559.185 -54.7783 588.946 -50.5781 631.342 -49.5781 c 1
 809.771 -10.5781 958.711 95.4219 1011.34 228.422 c 1
 1012.81 232.082 1014.57 236.474 1016.54 241.462 c 0
 1036.31 291.395 1076.69 401.142 1050.53 436.422 c 1x60
EndSplineSet
EndChar

StartChar: lessequal
Encoding: 8804 8804 148
Width: 596
Flags: W
HStem: -200 83<36.709 423.079>
LayerCount: 2
Fore
SplineSet
36.709 -117 m 1
 453.917 -119 l 1
 423.079 -202 l 1
 256.097 -202 169.49 -200 5.87109 -200 c 1
 36.709 -117 l 1
262.248 127 m 1
 512.328 -1.7002 l 1
 451.818 -68.7002 l 1
 364.787 -15.7002 242.452 34 155.422 87 c 1
 142.982 96 l 1
 140.269 122 l 1
 175.699 161 l 1
 306.459 216 474.525 274.3 605.287 329.3 c 1
 612.778 262.3 l 1
 262.248 127 l 1
EndSplineSet
EndChar

StartChar: greaterequal
Encoding: 8805 8805 149
Width: 596
Flags: W
LayerCount: 2
Fore
SplineSet
466.709 -117 m 1
 47.917 -119 l 1
 13.0791 -202 l 1
 180.062 -202 268.252 -200 431.871 -200 c 1
 466.709 -117 l 1
434.248 127 m 1
 82.3271 -1.7002 l 1
 89.8184 -68.7002 l 1
 218.787 -15.7002 380.452 34 509.422 87 c 1
 528.982 96 l 1
 552.269 122 l 1
 547.699 161 l 1
 460.459 216 338.525 274.3 251.287 329.3 c 1
 190.778 262.3 l 1
 434.248 127 l 1
EndSplineSet
EndChar
